<?xml version="1.0" encoding="utf-8"?>
<!-- Generator: Adobe Illustrator 24.2.1, SVG Export Plug-In . SVG Version: 6.00 Build 0)  -->
<svg version="1.1" id="Capa_1" xmlns="http://www.w3.org/2000/svg" xmlns:xlink="http://www.w3.org/1999/xlink" x="0px" y="0px"
	 viewBox="0 0 40 40" style="enable-background:new 0 0 40 40;" xml:space="preserve">
<style type="text/css">
	.st0{fill:none;stroke:#FFFFFF;}
	.st1{filter:url(#Adobe_OpacityMaskFilter);}
	.st2{fill-rule:evenodd;clip-rule:evenodd;fill:#FFFFFF;}
	.st3{mask:url(#mask-2_1_);}
</style>
<g id="GIFOS">
	<g id="_x31_6-UI-Kit-Modo-Nocturno" transform="translate(-176.000000, -2903.000000)">
		<g id="button-slider-right-md-noct" transform="translate(176.000000, 2903.000000)">
			<rect id="Rectangle" x="0.5" y="0.5" class="st0" width="39" height="39"/>
			<g id="right" transform="translate(16.000000, 13.000000)">
				<defs>
					<filter id="Adobe_OpacityMaskFilter" filterUnits="userSpaceOnUse" x="-8" y="-5" width="24" height="24">
						<feColorMatrix  type="matrix" values="1 0 0 0 0  0 1 0 0 0  0 0 1 0 0  0 0 0 1 0"/>
					</filter>
				</defs>
				<mask maskUnits="userSpaceOnUse" x="-8" y="-5" width="24" height="24" id="mask-2_1_">
					<g class="st1">
						<path id="path-1_2_" class="st2" d="M5.6,7l-5.3,5.3c-0.4,0.4-0.4,1,0,1.4c0.4,0.4,1,0.4,1.4,0l6-6c0.4-0.4,0.4-1,0-1.4l-6-6
							c-0.4-0.4-1-0.4-1.4,0s-0.4,1,0,1.4L5.6,7z"/>
					</g>
				</mask>
				<g id="Primary-color-Copy-2" class="st3">
					<g id="Rectangle_1_" transform="translate(-8.000000, -5.000000)">
						<rect y="0" class="st2" width="24" height="24"/>
					</g>
				</g>
				<g id="Shape">
					<path id="path-1_1_" d="M5.6,7l-5.3,5.3c-0.4,0.4-0.4,1,0,1.4c0.4,0.4,1,0.4,1.4,0l6-6c0.4-0.4,0.4-1,0-1.4l-6-6
						c-0.4-0.4-1-0.4-1.4,0s-0.4,1,0,1.4L5.6,7z"/>
				</g>
			</g>
		</g>
	</g>
</g>
</svg>
