<svg id="bb35aecc-d567-4426-8c44-4093e6ba91ab" data-name="Capa 1" xmlns="http://www.w3.org/2000/svg" xmlns:xlink="http://www.w3.org/1999/xlink" viewBox="0 0 123 162"><defs><style>.aa5de17f-e74a-48a6-8815-46a831174890{fill:#fff;}.a3257f6f-aa56-4cd2-b96e-3fc52483de56,.a5cb431b-87c1-41c6-b340-4dde23013f07,.a882dbf4-8d26-45a4-8b35-ecb188f063fa,.aa5de17f-e74a-48a6-8815-46a831174890,.abd62ec9-e687-40bf-acc7-41c3456b9e79,.ac58213f-1b0f-4928-be7f-8078912c3e84,.acfb5402-443b-4222-8a74-171aa4ba7bbd,.b0df79ff-456e-43cd-a6a6-612fbd63b135,.b80bbe9b-5fab-4de3-85be-60af0905410b,.b9ae0a7b-9c69-4bbe-a8aa-91338b29f071,.bab7fb42-9d29-48cb-829c-eaa96eae13fb,.be112a35-e177-4b0b-93c0-2e5e54060d0f,.e34d6d4a-3d5a-470d-b0d8-afb590c35004,.e76c781c-88e2-4e5a-8884-69ee29e29e81,.e90d0c91-3c1b-4c6e-a6df-63fa68e87fb2,.e973120b-058c-4d7f-9827-92139b82edad,.ee43163e-f5f6-48fd-ab1b-f86054ce129b,.f293c68e-6a46-4b07-b781-9a87c1b31a2b,.f4d00d16-9a92-4bf6-aa66-16996356cd20,.f5a6b1fb-b317-49ca-97d0-6c451784ad2e,.f5d40054-481c-442f-a45a-9b2492ee48e6,.f9f2627a-587b-4757-ad10-5cda5f5d7eb5,.fa8add34-7484-443f-adf5-345cf960dc6c{fill-rule:evenodd;}.ff1e273e-d2dd-4459-a5ca-abfe33806f31{mask:url(#a3a55862-b57f-4457-9272-d38ad4d5f422);}.e973120b-058c-4d7f-9827-92139b82edad{fill:url(#f3fe308b-6453-4406-90b3-7c9112eca07b);}.b40d786b-0654-47bb-88c2-ae67985314cf{mask:url(#b11bc6e8-c572-4dba-8529-75de14724146);}.acfb5402-443b-4222-8a74-171aa4ba7bbd{fill:url(#ee81e0b5-b428-494d-b8ce-8804e2708a90);}.e075914f-388d-4fec-883b-54df419bf774{mask:url(#b8d2a477-3cc2-436f-9308-1ce68e2b290e);}.f5d40054-481c-442f-a45a-9b2492ee48e6{fill:url(#b6a7b88f-8d06-485a-bdc3-cbcb1df7b96a);}.bd0de34c-0de7-4374-8366-bac8a04113cb{mask:url(#b386d0bf-79bf-4ef2-b8f7-91a3d8c2a24f);}.e34d6d4a-3d5a-470d-b0d8-afb590c35004{fill:url(#acb2f706-67ad-4609-945e-74b8d6f1f8b2);}.a47e6ecc-c279-40f7-a967-71cf974e5f23{mask:url(#a1fd176f-ec59-4be1-9369-992b6a9a849c);}.e76c781c-88e2-4e5a-8884-69ee29e29e81{fill:url(#aa966c75-74c8-49df-83ea-ae46d5975199);}.bc6345b5-f52c-4733-a9ae-3bada65da870{mask:url(#b842af08-029a-424a-82dd-9b3891f31b74);}.f4d00d16-9a92-4bf6-aa66-16996356cd20{fill:url(#ab7bc87c-8bdf-40b2-abd5-4429e0311c43);}.f1aa8071-7363-4e88-b967-3f403fe11de1{mask:url(#ad296b86-eb8e-4755-80ed-fbb7337be287);}.bab7fb42-9d29-48cb-829c-eaa96eae13fb{fill:url(#afe3902c-4e90-464d-a9db-f10c264e6ffe);}.bc8b534d-6f60-4dfa-a2c5-ca979e1779d2{mask:url(#bb71be9b-bc7d-44fc-88dc-c61367bef23a);}.ee43163e-f5f6-48fd-ab1b-f86054ce129b{fill:url(#a1a73f3f-e745-4791-9cec-c19a08177905);}.a4536784-540e-4030-9a7d-cfb7ae8bc196{mask:url(#a61202f3-13e1-4aaa-a7c9-cc919afb9ddd);}.b0df79ff-456e-43cd-a6a6-612fbd63b135{fill:url(#a3f29986-8128-4a74-859f-04c9a1abd96a);}.fc442245-43cc-4041-8101-16fd111c429c{mask:url(#a51c2335-7642-4aff-af08-2f73dedaf6c7);}.a882dbf4-8d26-45a4-8b35-ecb188f063fa{fill:url(#ed325c2b-73bc-4f82-8e92-cf49df64c699);}.b637f001-370f-4685-b34b-9a30d582e81e{mask:url(#b65198cd-7d4e-4faa-bfe2-565503c61587);}.a3257f6f-aa56-4cd2-b96e-3fc52483de56{fill:url(#b5eb3666-ec53-4d83-b860-d4a97a218489);}.f5e8d4c6-af06-4641-a8bf-3fa490754d03{mask:url(#a7ba9109-462d-4d3d-af96-f9545a6f999d);}.a5cb431b-87c1-41c6-b340-4dde23013f07{fill:url(#a270e62e-90d2-4be9-80e3-bc948c0d4c68);}.a2d376a9-b246-4e1d-9f6b-037cd39b0c71{mask:url(#f95a1b67-081a-42de-afdd-2387ed92d2b0);}.b9ae0a7b-9c69-4bbe-a8aa-91338b29f071{fill:url(#be3aaa62-bed9-4fff-a47b-f6c77c7f305d);}.bb2592e6-f3c1-478b-8ec2-dd6a913ee5d2{mask:url(#e903d66c-86d5-475a-9756-294f5915b5c3);}.f5a6b1fb-b317-49ca-97d0-6c451784ad2e{fill:url(#a1806336-9a05-43e8-aa07-2a2205ee4092);}.f1112b25-ed33-441a-a65a-461b57e32b7e{mask:url(#a3ddb0f7-702a-4b2d-aa77-d5127dec3b15);}.b80bbe9b-5fab-4de3-85be-60af0905410b{fill:url(#a2f70e55-ed0a-4ebe-829c-2d4216da3c15);}.a029c04a-0d65-4bf1-a511-1104fe6d348a{mask:url(#b87d3ced-1f5d-4b87-9f90-078f6b3abee0);}.f293c68e-6a46-4b07-b781-9a87c1b31a2b{fill:url(#f1b4d304-d3d4-4eab-96c6-a51d67ba26e2);}.e886f0fb-1a7c-4d3a-a819-3d1022fb7c1e{mask:url(#e32b5dd2-000f-4aaf-aab5-e3989a6659b5);}.ac58213f-1b0f-4928-be7f-8078912c3e84{fill:url(#bd3ae509-c541-486a-8269-c26ce5e9afc7);}.e44bd67b-7b6f-4855-b159-9fbd71d3297d{mask:url(#b63d8982-d434-4f64-8ad9-47abb074c3ec);}.e90d0c91-3c1b-4c6e-a6df-63fa68e87fb2{fill:url(#fa40cf1f-ea9b-4e69-a803-d4cca012eca1);}.ecbd48f1-9968-4479-864d-bb6eddcd1116{mask:url(#f7129a91-c554-4316-98a0-4de3c16c0601);}.be112a35-e177-4b0b-93c0-2e5e54060d0f{fill:url(#a9993822-ee51-4aab-a8ea-d4582ef3641e);}.ad723e37-a8da-479f-bc1d-2306e27c173e{mask:url(#b354cdca-74f5-44af-b3d3-1507d0ecafb5);}.abd62ec9-e687-40bf-acc7-41c3456b9e79{fill:url(#ba948850-5733-4e46-9944-f7d8dc79fd5a);}.f3910e3e-8a9c-42f9-8a9a-f66962945fea{mask:url(#bf38a1f3-73d3-40c3-a1ea-82b07886d1f5);}.f9f2627a-587b-4757-ad10-5cda5f5d7eb5{fill:url(#a1e73003-b7a4-4978-8958-f9b1d3c5f5be);}.a551e27f-1592-410c-809e-9a0646cf4f5f{mask:url(#e75113d4-3fd9-4640-a546-9c1d64d957f5);}.fa8add34-7484-443f-adf5-345cf960dc6c{fill:url(#a323b358-8b24-4f30-8f8e-e03462a55208);}</style><mask id="a3a55862-b57f-4457-9272-d38ad4d5f422" x="8.78" y="57.37" width="95.04" height="48.73" maskUnits="userSpaceOnUse"><g id="a2451f39-046f-4d7b-bcc6-737b65638627" data-name="mask-2"><path id="a17b0614-a263-487d-8b84-4b3e5b9622a3" data-name="path-1" class="aa5de17f-e74a-48a6-8815-46a831174890" d="M18,57.37a9.26,9.26,0,0,0-9.25,9.24h0V96.85A9.26,9.26,0,0,0,18,106.1H94.57a9.26,9.26,0,0,0,9.25-9.25h0V66.61a9.26,9.26,0,0,0-9.25-9.24H18ZM10.16,96.85V66.61A7.88,7.88,0,0,1,18,58.75H94.57a7.88,7.88,0,0,1,7.87,7.86h0V96.85a7.88,7.88,0,0,1-7.87,7.87H18a7.88,7.88,0,0,1-7.87-7.87Z"/></g></mask><linearGradient id="f3fe308b-6453-4406-90b3-7c9112eca07b" x1="-79.16" y1="221.73" x2="-78.16" y2="221.73" gradientTransform="matrix(95.04, 0, 0, -48.73, 7531.87, 10886.79)" gradientUnits="userSpaceOnUse"><stop offset="0" stop-color="#7c72ff"/><stop offset="1" stop-color="#6d64f4"/></linearGradient><mask id="b11bc6e8-c572-4dba-8529-75de14724146" x="49.01" y="0.64" width="63.6" height="63.56" maskUnits="userSpaceOnUse"><g id="a023d5c1-9859-4ef1-859f-02fa83df3102" data-name="mask-5"><path id="ed5df692-34bf-456f-aa47-60d98a93fa10" data-name="path-4" class="aa5de17f-e74a-48a6-8815-46a831174890" d="M80.81.64A31.82,31.82,0,0,0,49,32.42h0A31.82,31.82,0,0,0,80.81,64.2h0A31.82,31.82,0,0,0,112.6,32.42h0A31.82,31.82,0,0,0,80.81.64ZM50.39,32.42A30.45,30.45,0,0,1,80.81,2h0a30.44,30.44,0,0,1,30.41,30.4h0a30.43,30.43,0,0,1-30.41,30.4h0a30.44,30.44,0,0,1-30.42-30.4Z"/></g></mask><linearGradient id="ee81e0b5-b428-494d-b8ce-8804e2708a90" x1="-78.74" y1="222.02" x2="-77.74" y2="222.02" gradientTransform="matrix(63.6, 0, 0, -63.56, 5056.65, 14144.84)" xlink:href="#f3fe308b-6453-4406-90b3-7c9112eca07b"/><mask id="b8d2a477-3cc2-436f-9308-1ce68e2b290e" x="0" y="18.33" width="45.9" height="45.88" maskUnits="userSpaceOnUse"><g id="bfae28de-04ac-45b5-ad15-886e99c6bcad" data-name="mask-8"><path id="a5691570-913d-4247-8beb-716c93356f20" data-name="path-7" class="aa5de17f-e74a-48a6-8815-46a831174890" d="M0,41.27A23,23,0,0,0,23,64.2h0a23,23,0,0,0,23-22.93h0A23,23,0,0,0,23,18.33h0A23,23,0,0,0,0,41.27m1.38,0A21.59,21.59,0,0,1,23,19.71h0A21.59,21.59,0,0,1,44.52,41.27h0A21.59,21.59,0,0,1,23,62.82h0A21.59,21.59,0,0,1,1.38,41.27"/></g></mask><linearGradient id="b6a7b88f-8d06-485a-bdc3-cbcb1df7b96a" x1="-78.26" y1="221.66" x2="-77.26" y2="221.66" gradientTransform="matrix(45.9, 0, 0, -45.88, 3592.06, 10210.3)" xlink:href="#f3fe308b-6453-4406-90b3-7c9112eca07b"/><mask id="b386d0bf-79bf-4ef2-b8f7-91a3d8c2a24f" x="74.97" y="26.59" width="11.67" height="11.66" maskUnits="userSpaceOnUse"><g id="e3532343-8f34-4ec1-a4f5-9e92d05b2dc5" data-name="mask-11"><path id="a48d3848-8a1a-4622-b271-9576278086ce" data-name="path-10" class="aa5de17f-e74a-48a6-8815-46a831174890" d="M75,32.42a5.84,5.84,0,0,0,5.84,5.83h0a5.84,5.84,0,0,0,5.83-5.83h0a5.84,5.84,0,0,0-5.83-5.83h0A5.84,5.84,0,0,0,75,32.42m.61,0a5.23,5.23,0,0,1,5.23-5.22h0A5.22,5.22,0,0,1,86,32.42h0a5.22,5.22,0,0,1-5.22,5.22h0a5.23,5.23,0,0,1-5.23-5.22"/></g></mask><linearGradient id="acb2f706-67ad-4609-945e-74b8d6f1f8b2" x1="-73.14" y1="217.82" x2="-72.14" y2="217.82" gradientTransform="matrix(11.67, 0, 0, -11.66, 928.54, 2573.08)" xlink:href="#f3fe308b-6453-4406-90b3-7c9112eca07b"/><mask id="a1fd176f-ec59-4be1-9369-992b6a9a849c" x="40.33" y="104.72" width="31.95" height="8.65" maskUnits="userSpaceOnUse"><g id="e1cce21b-88d9-4a89-89ee-6a62808537b4" data-name="mask-14"><path id="b26d1867-b8e3-4904-aa8b-f8b7336a0e1e" data-name="path-13" class="aa5de17f-e74a-48a6-8815-46a831174890" d="M41,104.72a.69.69,0,0,0-.69.69h0v.29A7.68,7.68,0,0,0,48,113.37H64.6a7.68,7.68,0,0,0,7.67-7.67h0v-.29a.69.69,0,0,0-.69-.69H41Zm.7,1.38H70.88A6.31,6.31,0,0,1,64.6,112H48a6.31,6.31,0,0,1-6.28-5.89Z"/></g></mask><linearGradient id="aa966c75-74c8-49df-83ea-ae46d5975199" x1="-77.5" y1="216.03" x2="-76.5" y2="216.03" gradientTransform="matrix(31.95, 0, 0, -8.65, 2515.96, 1978.41)" xlink:href="#f3fe308b-6453-4406-90b3-7c9112eca07b"/><mask id="b842af08-029a-424a-82dd-9b3891f31b74" x="55.61" y="111.99" width="1.38" height="48.88" maskUnits="userSpaceOnUse"><g id="f37505d1-6afb-4e41-8770-7c6be220236c" data-name="mask-17"><path id="e93fd349-e4ae-4b3f-af9a-afa52623423b" data-name="path-16" class="aa5de17f-e74a-48a6-8815-46a831174890" d="M55.61,112.68v47.5a.69.69,0,0,0,.69.69h0a.69.69,0,0,0,.69-.69h0v-47.5a.69.69,0,0,0-.69-.69h0a.69.69,0,0,0-.69.69"/></g></mask><linearGradient id="ab7bc87c-8bdf-40b2-abd5-4429e0311c43" x1="-22.08" y1="221.74" x2="-21.08" y2="221.74" gradientTransform="matrix(1.38, 0, 0, -48.88, 86.11, 10973.9)" xlink:href="#f3fe308b-6453-4406-90b3-7c9112eca07b"/><mask id="ad296b86-eb8e-4755-80ed-fbb7337be287" x="7.53" y="111.99" width="49.46" height="49.44" maskUnits="userSpaceOnUse"><g id="eb41dfdd-c86a-44b6-96e7-b1aea01e48da" data-name="mask-20"><path id="a83e3051-5388-4ed9-be90-fd1ddc052fb1" data-name="path-19" class="aa5de17f-e74a-48a6-8815-46a831174890" d="M55.81,112.19,7.74,160.25a.69.69,0,0,0,0,1h0a.69.69,0,0,0,.48.2h0a.7.7,0,0,0,.49-.2h0l48.08-48.06a.69.69,0,0,0,0-1h0a.71.71,0,0,0-.49-.2h0a.71.71,0,0,0-.49.2"/></g></mask><linearGradient id="afe3902c-4e90-464d-a9db-f10c264e6ffe" x1="-78.38" y1="221.75" x2="-77.38" y2="221.75" gradientTransform="matrix(49.46, 0, 0, -49.44, 3884.15, 11099.24)" xlink:href="#f3fe308b-6453-4406-90b3-7c9112eca07b"/><mask id="bb71be9b-bc7d-44fc-88dc-c61367bef23a" x="55.61" y="111.99" width="49.46" height="49.44" maskUnits="userSpaceOnUse"><g id="a985fc83-caf0-4d35-b022-ba2bc34f9148" data-name="mask-23"><path id="ed6f797d-37d9-4d08-82f5-055eb5b33d65" data-name="path-22" class="aa5de17f-e74a-48a6-8815-46a831174890" d="M55.81,112.19a.69.69,0,0,0,0,1h0l48.08,48.06a.7.7,0,0,0,.49.2h0a.73.73,0,0,0,.49-.2h0a.69.69,0,0,0,0-1h0L56.79,112.19a.71.71,0,0,0-.49-.2h0a.71.71,0,0,0-.49.2"/></g></mask><linearGradient id="a1a73f3f-e745-4791-9cec-c19a08177905" x1="-78.38" y1="221.75" x2="-77.38" y2="221.75" gradientTransform="matrix(49.46, 0, 0, -49.44, 3932.24, 11099.24)" xlink:href="#f3fe308b-6453-4406-90b3-7c9112eca07b"/><mask id="a61202f3-13e1-4aaa-a7c9-cc919afb9ddd" x="17.57" y="92.03" width="26.85" height="6.51" maskUnits="userSpaceOnUse"><g id="b6ae2216-1dda-4e99-81bd-b57ae0412d68" data-name="mask-26"><path id="b93394a3-35e4-44cb-9fd6-9c2833f2b534" data-name="path-25" class="aa5de17f-e74a-48a6-8815-46a831174890" d="M18.26,92a.69.69,0,0,0-.69.69h0v5.13a.69.69,0,0,0,.69.69H43.73a.69.69,0,0,0,.69-.69h0V92.72a.69.69,0,0,0-.69-.69H18.26ZM19,97.16H43V93.41H19Z"/></g></mask><linearGradient id="a3f29986-8128-4a74-859f-04c9a1abd96a" x1="-77.02" y1="213.75" x2="-76.02" y2="213.75" gradientTransform="matrix(26.85, 0, 0, -6.51, 2085.76, 1487.37)" xlink:href="#f3fe308b-6453-4406-90b3-7c9112eca07b"/><mask id="a51c2335-7642-4aff-af08-2f73dedaf6c7" x="47.32" y="92.03" width="6.63" height="6.51" maskUnits="userSpaceOnUse"><g id="f036edeb-33ec-44cc-970a-2f7be17c856e" data-name="mask-29"><path id="a2d7b1f1-b19e-4433-ab86-a669f2a1f000" data-name="path-28" class="aa5de17f-e74a-48a6-8815-46a831174890" d="M48,92a.69.69,0,0,0-.69.69h0v5.13a.69.69,0,0,0,.69.69h5.25a.69.69,0,0,0,.69-.69h0V92.72a.69.69,0,0,0-.69-.69H48Zm.69,5.13h3.86V93.41H48.7Z"/></g></mask><linearGradient id="ed325c2b-73bc-4f82-8e92-cf49df64c699" x1="-67.93" y1="213.75" x2="-66.93" y2="213.75" gradientTransform="matrix(6.63, 0, 0, -6.51, 497.4, 1487.37)" xlink:href="#f3fe308b-6453-4406-90b3-7c9112eca07b"/><mask id="b65198cd-7d4e-4faa-bfe2-565503c61587" x="17.57" y="84.32" width="26.85" height="1.38" maskUnits="userSpaceOnUse"><g id="e4d4beb9-9b58-4843-9fd8-7e285a151339" data-name="mask-32"><path id="ab555c04-75cf-42ea-b9b8-e870d8094b2c" data-name="path-31" class="aa5de17f-e74a-48a6-8815-46a831174890" d="M18.26,84.32a.69.69,0,0,0-.69.69h0a.69.69,0,0,0,.69.69H43.73a.69.69,0,0,0,.69-.69h0a.69.69,0,0,0-.69-.69H18.26Z"/></g></mask><linearGradient id="b5eb3666-ec53-4d83-b860-d4a97a218489" x1="-77.02" y1="179.5" x2="-76.02" y2="179.5" gradientTransform="matrix(26.85, 0, 0, -1.38, 2085.76, 332.82)" xlink:href="#f3fe308b-6453-4406-90b3-7c9112eca07b"/><mask id="a7ba9109-462d-4d3d-af96-f9545a6f999d" x="17.57" y="77.33" width="36.38" height="1.38" maskUnits="userSpaceOnUse"><g id="aa8b0904-14b4-43f3-899b-515272673580" data-name="mask-35"><path id="f2da80c7-dc62-4ae1-bec3-08db687ae5a3" data-name="path-34" class="aa5de17f-e74a-48a6-8815-46a831174890" d="M18.26,77.33a.69.69,0,0,0-.69.69h0a.69.69,0,0,0,.69.7h35A.69.69,0,0,0,54,78h0a.69.69,0,0,0-.69-.69h-35Z"/></g></mask><linearGradient id="a270e62e-90d2-4be9-80e3-bc948c0d4c68" x1="-77.8" y1="179.52" x2="-76.8" y2="179.52" gradientTransform="matrix(36.38, 0, 0, -1.38, 2847.75, 325.98)" xlink:href="#f3fe308b-6453-4406-90b3-7c9112eca07b"/><mask id="f95a1b67-081a-42de-afdd-2387ed92d2b0" x="105.18" y="66.18" width="12.96" height="31.11" maskUnits="userSpaceOnUse"><g id="ac1444c6-fb81-4899-b435-4f320ae1cb78" data-name="mask-38"><path id="afd1fc14-9cef-48e9-99b9-d86a63b3b530" data-name="path-37" class="aa5de17f-e74a-48a6-8815-46a831174890" d="M117.1,66.27,105.53,73a.68.68,0,0,0-.35.6h0V89.92a.7.7,0,0,0,.35.6h0L117.1,97.2a.73.73,0,0,0,.35.09h0a.67.67,0,0,0,.34-.09h0a.7.7,0,0,0,.35-.6h0V66.87a.68.68,0,0,0-.35-.6h0a.67.67,0,0,0-.34-.09h0a.73.73,0,0,0-.35.09ZM106.56,89.52V74l10.2-5.89V95.4Z"/></g></mask><linearGradient id="be3aaa62-bed9-4fff-a47b-f6c77c7f305d" x1="-73.83" y1="221.04" x2="-72.83" y2="221.04" gradientTransform="matrix(12.96, 0, 0, -31.11, 1061.66, 6958.11)" xlink:href="#f3fe308b-6453-4406-90b3-7c9112eca07b"/><mask id="e903d66c-86d5-475a-9756-294f5915b5c3" x="116.76" y="61.49" width="6.22" height="40.49" maskUnits="userSpaceOnUse"><g id="bfc5a803-051c-426d-b236-340dbbd1bd8b" data-name="mask-41"><path id="e50ff9be-2581-492c-a356-ce9038a7878f" data-name="path-40" class="aa5de17f-e74a-48a6-8815-46a831174890" d="M121.94,61.58l-4.84,2.79a.69.69,0,0,0-.34.6h0V98.5a.68.68,0,0,0,.34.59h0l4.84,2.79a.59.59,0,0,0,.34.1h0a.64.64,0,0,0,.35-.1h0a.68.68,0,0,0,.34-.59h0V62.18a.69.69,0,0,0-.34-.6h0a.73.73,0,0,0-.35-.09h0a.67.67,0,0,0-.34.09Zm-3.8,36.52V65.37l3.45-2v36.71Z"/></g></mask><linearGradient id="a1806336-9a05-43e8-aa07-2a2205ee4092" x1="-67.13" y1="221.48" x2="-66.13" y2="221.48" gradientTransform="matrix(6.22, 0, 0, -40.49, 534.04, 9049.23)" xlink:href="#f3fe308b-6453-4406-90b3-7c9112eca07b"/><mask id="a3ddb0f7-702a-4b2d-aa77-d5127dec3b15" x="84.22" y="7.87" width="21.15" height="21.14" maskUnits="userSpaceOnUse"><g id="f9ee348d-7aa3-464f-be0b-775c6581aa3e" data-name="mask-44"><path id="a73a68ab-1691-4d95-b6e9-cd3d02997cc9" data-name="path-43" class="aa5de17f-e74a-48a6-8815-46a831174890" d="M84.4,8a.52.52,0,0,0-.18.4h0V23.62a.53.53,0,0,0,.3.48h0a9,9,0,0,1,4.62,4.61h0a.51.51,0,0,0,.47.3h15.24a.52.52,0,0,0,.4-.18h0a.48.48,0,0,0,.11-.41h0A24.69,24.69,0,0,0,84.81,7.88h-.07A.5.5,0,0,0,84.4,8m.85,15.3V9a23.68,23.68,0,0,1,19,19H89.94a10.06,10.06,0,0,0-4.69-4.69"/></g></mask><linearGradient id="a2f70e55-ed0a-4ebe-829c-2d4216da3c15" x1="-76.22" y1="220.13" x2="-75.22" y2="220.13" gradientTransform="matrix(21.15, 0, 0, -21.14, 1696.57, 4672.64)" xlink:href="#f3fe308b-6453-4406-90b3-7c9112eca07b"/><mask id="b87d3ced-1f5d-4b87-9f90-078f6b3abee0" x="56.24" y="7.87" width="21.16" height="21.14" maskUnits="userSpaceOnUse"><g id="b17f915f-af40-4a4d-9bce-e83a23519ea8" data-name="mask-47"><path id="e7d867ff-1f47-4996-a7e8-3d84b6a3cb07" data-name="path-46" class="aa5de17f-e74a-48a6-8815-46a831174890" d="M76.8,7.88A24.69,24.69,0,0,0,56.25,28.42h0a.52.52,0,0,0,.12.41h0a.48.48,0,0,0,.39.18H72a.53.53,0,0,0,.48-.3h0a9,9,0,0,1,4.61-4.61h0a.53.53,0,0,0,.31-.48h0V8.39a.55.55,0,0,0-.18-.4h0a.54.54,0,0,0-.34-.12H76.8M76.37,9V23.29A10,10,0,0,0,71.67,28H57.37a23.69,23.69,0,0,1,19-19"/></g></mask><linearGradient id="f1b4d304-d3d4-4eab-96c6-a51d67ba26e2" x1="-76.22" y1="220.13" x2="-75.22" y2="220.13" gradientTransform="matrix(21.16, 0, 0, -21.14, 1668.67, 4672.64)" xlink:href="#f3fe308b-6453-4406-90b3-7c9112eca07b"/><mask id="e32b5dd2-000f-4aaf-aab5-e3989a6659b5" x="56.24" y="35.83" width="21.16" height="21.15" maskUnits="userSpaceOnUse"><g id="e57844af-2e67-42a8-870f-7184062b7a6a" data-name="mask-50"><path id="bc6ef42b-4217-4644-a4ca-53a4d97092c3" data-name="path-49" class="aa5de17f-e74a-48a6-8815-46a831174890" d="M56.76,35.83a.52.52,0,0,0-.39.18h0a.54.54,0,0,0-.12.42h0A24.72,24.72,0,0,0,76.8,57h.08a.54.54,0,0,0,.34-.12h0a.53.53,0,0,0,.18-.39h0V41.22a.51.51,0,0,0-.31-.47h0a9,9,0,0,1-4.61-4.61h0a.53.53,0,0,0-.48-.31H56.76Zm.61,1h14.3a10,10,0,0,0,4.7,4.69h0V55.84a23.69,23.69,0,0,1-19-19Z"/></g></mask><linearGradient id="bd3ae509-c541-486a-8269-c26ce5e9afc7" x1="-76.22" y1="220.13" x2="-75.22" y2="220.13" gradientTransform="matrix(21.16, 0, 0, -21.15, 1668.67, 4701.02)" xlink:href="#f3fe308b-6453-4406-90b3-7c9112eca07b"/><mask id="b63d8982-d434-4f64-8ad9-47abb074c3ec" x="84.22" y="35.83" width="21.15" height="21.15" maskUnits="userSpaceOnUse"><g id="a2c31db4-4913-491b-8b92-8fb11062b2f7" data-name="mask-53"><path id="a83e93d2-1280-4604-ae67-516443dc3586" data-name="path-52" class="aa5de17f-e74a-48a6-8815-46a831174890" d="M89.61,35.83a.5.5,0,0,0-.47.31h0a9,9,0,0,1-4.62,4.61h0a.52.52,0,0,0-.3.47h0V56.46a.5.5,0,0,0,.18.39h0a.5.5,0,0,0,.33.12h.08a24.72,24.72,0,0,0,20.55-20.54h0a.5.5,0,0,0-.11-.42h0a.55.55,0,0,0-.4-.18H89.61Zm-4.36,5.72a10.06,10.06,0,0,0,4.69-4.69h14.3a23.68,23.68,0,0,1-19,19h0Z"/></g></mask><linearGradient id="fa40cf1f-ea9b-4e69-a803-d4cca012eca1" x1="-76.22" y1="220.13" x2="-75.22" y2="220.13" gradientTransform="matrix(21.15, 0, 0, -21.15, 1696.57, 4701.02)" xlink:href="#f3fe308b-6453-4406-90b3-7c9112eca07b"/><mask id="f7129a91-c554-4316-98a0-4de3c16c0601" x="25.56" y="24.03" width="14.96" height="14.95" maskUnits="userSpaceOnUse"><g id="f9bcfcd8-9bda-4d29-be74-7784fe493c06" data-name="mask-56"><path id="a6b05188-ea0f-4060-bbab-bd43985f6775" data-name="path-55" class="aa5de17f-e74a-48a6-8815-46a831174890" d="M25.69,24.11a.41.41,0,0,0-.13.28h0V35.17a.37.37,0,0,0,.22.33h0A6.33,6.33,0,0,1,29,38.76h0a.37.37,0,0,0,.33.22H40.15a.37.37,0,0,0,.28-.13h0a.36.36,0,0,0,.08-.3h0A17.48,17.48,0,0,0,26,24h-.05a.41.41,0,0,0-.24.08m.6,10.82V24.83A16.73,16.73,0,0,1,39.72,38.25H29.61a7.13,7.13,0,0,0-3.32-3.32"/></g></mask><linearGradient id="a9993822-ee51-4aab-a8ea-d4582ef3641e" x1="-74.65" y1="218.95" x2="-73.65" y2="218.95" gradientTransform="matrix(14.96, 0, 0, -14.95, 1142.01, 3304.42)" xlink:href="#f3fe308b-6453-4406-90b3-7c9112eca07b"/><mask id="b354cdca-74f5-44af-b3d3-1507d0ecafb5" x="5.78" y="24.03" width="14.96" height="14.95" maskUnits="userSpaceOnUse"><g id="a3f04c5a-7f5a-42d8-9bff-0eb99fcaea8c" data-name="mask-59"><path id="aefc255d-396f-48f0-8e08-0cc2e531f836" data-name="path-58" class="aa5de17f-e74a-48a6-8815-46a831174890" d="M20.32,24A17.49,17.49,0,0,0,5.79,38.55h0a.36.36,0,0,0,.08.3h0a.37.37,0,0,0,.28.13H16.93a.37.37,0,0,0,.33-.22h0a6.36,6.36,0,0,1,3.26-3.26h0a.36.36,0,0,0,.22-.33h0V24.39a.41.41,0,0,0-.13-.28h0a.41.41,0,0,0-.24-.08h-.05m-.31.8v10.1a7.13,7.13,0,0,0-3.32,3.32H6.58A16.73,16.73,0,0,1,20,24.83"/></g></mask><linearGradient id="ba948850-5733-4e46-9944-f7d8dc79fd5a" x1="-74.65" y1="218.95" x2="-73.65" y2="218.95" gradientTransform="matrix(14.96, 0, 0, -14.95, 1122.35, 3304.42)" xlink:href="#f3fe308b-6453-4406-90b3-7c9112eca07b"/><mask id="bf38a1f3-73d3-40c3-a1ea-82b07886d1f5" x="5.78" y="43.79" width="14.96" height="14.95" maskUnits="userSpaceOnUse"><g id="e326b77f-4650-4b3d-8b5d-e8d56420aaaa" data-name="mask-62"><path id="ba461d24-424d-4f3d-844f-93908b049616" data-name="path-61" class="aa5de17f-e74a-48a6-8815-46a831174890" d="M6.15,43.79a.37.37,0,0,0-.28.13h0a.36.36,0,0,0-.08.3h0A17.47,17.47,0,0,0,20.32,58.74h.06a.38.38,0,0,0,.23-.08h0a.37.37,0,0,0,.13-.28h0V47.61a.36.36,0,0,0-.22-.34h0A6.36,6.36,0,0,1,17.26,44h0a.37.37,0,0,0-.33-.22H6.15Zm.43.73H16.69A7.08,7.08,0,0,0,20,47.84h0V58A16.74,16.74,0,0,1,6.58,44.52Z"/></g></mask><linearGradient id="a1e73003-b7a4-4978-8958-f9b1d3c5f5be" x1="-74.65" y1="218.95" x2="-73.65" y2="218.95" gradientTransform="matrix(14.96, 0, 0, -14.95, 1122.35, 3324.61)" xlink:href="#f3fe308b-6453-4406-90b3-7c9112eca07b"/><mask id="e75113d4-3fd9-4640-a546-9c1d64d957f5" x="25.56" y="43.79" width="14.96" height="14.95" maskUnits="userSpaceOnUse"><g id="efa5ef49-c735-4e3e-8aa7-c890272a0028" data-name="mask-65"><path id="a4c11028-35d3-4e41-b009-b2a1571f3ffa" data-name="path-64" class="aa5de17f-e74a-48a6-8815-46a831174890" d="M29.37,43.79A.37.37,0,0,0,29,44h0a6.33,6.33,0,0,1-3.26,3.26h0a.38.38,0,0,0-.22.34h0V58.38a.37.37,0,0,0,.13.28h0a.41.41,0,0,0,.24.08H26A17.47,17.47,0,0,0,40.51,44.22h0a.36.36,0,0,0-.08-.3h0a.37.37,0,0,0-.28-.13H29.37Zm-3.08,4.05a7.08,7.08,0,0,0,3.32-3.32H39.72A16.74,16.74,0,0,1,26.29,58h0Z"/></g></mask><linearGradient id="a323b358-8b24-4f30-8f8e-e03462a55208" x1="-74.65" y1="218.95" x2="-73.65" y2="218.95" gradientTransform="matrix(14.96, 0, 0, -14.95, 1142.01, 3324.61)" xlink:href="#f3fe308b-6453-4406-90b3-7c9112eca07b"/></defs><g id="f98899eb-5393-42e4-9e8f-36dcdbdbd35b" data-name="GIFOS"><g id="b1a90a51-b04a-4c10-a56d-57484506991b" data-name="00-UI-Kit"><g id="b241a077-34ba-417a-b43f-27db17173d90" data-name="camara"><g id="fdacb00a-f8b4-4d66-8872-79cf127aefbb" data-name="Group-97"><g id="b18e8623-f880-4955-b00a-2c2fa1e54428" data-name="Group-5"><g class="ff1e273e-d2dd-4459-a5ca-abfe33806f31"><path id="f0837ba8-3d86-4396-8ece-589c31e34990" data-name="Fill-3" class="e973120b-058c-4d7f-9827-92139b82edad" d="M18,57.37a9.26,9.26,0,0,0-9.25,9.24h0V96.85A9.26,9.26,0,0,0,18,106.1H94.57a9.26,9.26,0,0,0,9.25-9.25h0V66.61a9.26,9.26,0,0,0-9.25-9.24H18ZM10.16,96.85V66.61A7.88,7.88,0,0,1,18,58.75H94.57a7.88,7.88,0,0,1,7.87,7.86h0V96.85a7.88,7.88,0,0,1-7.87,7.87H18a7.88,7.88,0,0,1-7.87-7.87Z"/></g></g><g id="a67db4ad-4c29-42c3-9cf3-e2dac9774f8b" data-name="Group-10"><g class="b40d786b-0654-47bb-88c2-ae67985314cf"><path id="ee7471cc-b016-401e-abc4-afc4af4f8e16" data-name="Fill-8" class="acfb5402-443b-4222-8a74-171aa4ba7bbd" d="M80.81.64A31.82,31.82,0,0,0,49,32.42h0A31.82,31.82,0,0,0,80.81,64.2h0A31.82,31.82,0,0,0,112.6,32.42h0A31.82,31.82,0,0,0,80.81.64ZM50.39,32.42A30.45,30.45,0,0,1,80.81,2h0a30.44,30.44,0,0,1,30.41,30.4h0a30.43,30.43,0,0,1-30.41,30.4h0a30.44,30.44,0,0,1-30.42-30.4Z"/></g></g><g id="b288b6ab-f464-4f00-9f2a-7b946c5a70bd" data-name="Group-15"><g class="e075914f-388d-4fec-883b-54df419bf774"><path id="eeeba714-038a-4961-8e30-59c4db1d6692" data-name="Fill-13" class="f5d40054-481c-442f-a45a-9b2492ee48e6" d="M0,41.27A23,23,0,0,0,23,64.2h0a23,23,0,0,0,23-22.93h0A23,23,0,0,0,23,18.33h0A23,23,0,0,0,0,41.27m1.38,0A21.59,21.59,0,0,1,23,19.71h0A21.59,21.59,0,0,1,44.52,41.27h0A21.59,21.59,0,0,1,23,62.82h0A21.59,21.59,0,0,1,1.38,41.27"/></g></g><g id="a420a1a0-cd98-4b30-9bc7-2f55d83e6c1f" data-name="Group-20"><g class="bd0de34c-0de7-4374-8366-bac8a04113cb"><path id="a0b1353b-2ea2-496f-9c4c-b1553b94f662" data-name="Fill-18" class="e34d6d4a-3d5a-470d-b0d8-afb590c35004" d="M75,32.42a5.84,5.84,0,0,0,5.84,5.83h0a5.84,5.84,0,0,0,5.83-5.83h0a5.84,5.84,0,0,0-5.83-5.83h0A5.84,5.84,0,0,0,75,32.42m.61,0a5.23,5.23,0,0,1,5.23-5.22h0A5.22,5.22,0,0,1,86,32.42h0a5.22,5.22,0,0,1-5.22,5.22h0a5.23,5.23,0,0,1-5.23-5.22"/></g></g><g id="a495487b-64cd-405b-b240-3e5eeca3c05c" data-name="Group-25"><g class="a47e6ecc-c279-40f7-a967-71cf974e5f23"><path id="b9c9c81a-4c65-473a-ac7e-b6b247199e4d" data-name="Fill-23" class="e76c781c-88e2-4e5a-8884-69ee29e29e81" d="M41,104.72a.69.69,0,0,0-.69.69h0v.29A7.68,7.68,0,0,0,48,113.37H64.6a7.68,7.68,0,0,0,7.67-7.67h0v-.29a.69.69,0,0,0-.69-.69H41Zm.7,1.38H70.88A6.31,6.31,0,0,1,64.6,112H48a6.31,6.31,0,0,1-6.28-5.89Z"/></g></g><g id="f86b0eab-1323-4269-a534-e069b4886faa" data-name="Group-28"><g class="bc6345b5-f52c-4733-a9ae-3bada65da870"><path id="b0dd73dc-b1ef-48c9-948d-f539a6c2d25d" data-name="Fill-26" class="f4d00d16-9a92-4bf6-aa66-16996356cd20" d="M55.61,112.68v47.5a.69.69,0,0,0,.69.69h0a.69.69,0,0,0,.69-.69h0v-47.5a.69.69,0,0,0-.69-.69h0a.69.69,0,0,0-.69.69"/></g></g><g id="ac332c0d-276e-42cf-8234-36cd6627a63f" data-name="Group-31"><g class="f1aa8071-7363-4e88-b967-3f403fe11de1"><path id="a93b6e72-8217-4904-b8ef-989ae2efbd33" data-name="Fill-29" class="bab7fb42-9d29-48cb-829c-eaa96eae13fb" d="M55.81,112.19,7.74,160.25a.69.69,0,0,0,0,1h0a.69.69,0,0,0,.48.2h0a.7.7,0,0,0,.49-.2h0l48.08-48.06a.69.69,0,0,0,0-1h0a.71.71,0,0,0-.49-.2h0a.71.71,0,0,0-.49.2"/></g></g><g id="b73f45a9-3823-45f8-9879-17c897030fb8" data-name="Group-34"><g class="bc8b534d-6f60-4dfa-a2c5-ca979e1779d2"><path id="b4c85c82-a130-4a5b-b08a-57f48d9a2edd" data-name="Fill-32" class="ee43163e-f5f6-48fd-ab1b-f86054ce129b" d="M55.81,112.19a.69.69,0,0,0,0,1h0l48.08,48.06a.7.7,0,0,0,.49.2h0a.73.73,0,0,0,.49-.2h0a.69.69,0,0,0,0-1h0L56.79,112.19a.71.71,0,0,0-.49-.2h0a.71.71,0,0,0-.49.2"/></g></g><g id="ef8e6887-5827-4ac1-b535-f529d667f8c5" data-name="Group-37"><g class="a4536784-540e-4030-9a7d-cfb7ae8bc196"><path id="aec8cdcb-2ff4-4240-a24e-e838d938b999" data-name="Fill-35" class="b0df79ff-456e-43cd-a6a6-612fbd63b135" d="M18.26,92a.69.69,0,0,0-.69.69h0v5.13a.69.69,0,0,0,.69.69H43.73a.69.69,0,0,0,.69-.69h0V92.72a.69.69,0,0,0-.69-.69H18.26ZM19,97.16H43V93.41H19Z"/></g></g><g id="b5cc9b96-334b-4439-99b3-ba219be9d565" data-name="Group-40"><g class="fc442245-43cc-4041-8101-16fd111c429c"><path id="bb238aa8-0d16-4af5-9cbf-24b0913badad" data-name="Fill-38" class="a882dbf4-8d26-45a4-8b35-ecb188f063fa" d="M48,92a.69.69,0,0,0-.69.69h0v5.13a.69.69,0,0,0,.69.69h5.25a.69.69,0,0,0,.69-.69h0V92.72a.69.69,0,0,0-.69-.69H48Zm.69,5.13h3.86V93.41H48.7Z"/></g></g><g id="a172627d-25e2-4a09-b737-3c8d374d7ac2" data-name="Group-43"><g class="b637f001-370f-4685-b34b-9a30d582e81e"><path id="a1790efa-f63e-430c-b44c-058cfa79fd22" data-name="Fill-41" class="a3257f6f-aa56-4cd2-b96e-3fc52483de56" d="M18.26,84.32a.69.69,0,0,0-.69.69h0a.69.69,0,0,0,.69.69H43.73a.69.69,0,0,0,.69-.69h0a.69.69,0,0,0-.69-.69H18.26Z"/></g></g><g id="f9428cfe-1773-45bb-aa47-0ee7ec19fec4" data-name="Group-46"><g class="f5e8d4c6-af06-4641-a8bf-3fa490754d03"><path id="f3858d05-3cf5-4a11-95c8-50595998bb1c" data-name="Fill-44" class="a5cb431b-87c1-41c6-b340-4dde23013f07" d="M18.26,77.33a.69.69,0,0,0-.69.69h0a.69.69,0,0,0,.69.7h35A.69.69,0,0,0,54,78h0a.69.69,0,0,0-.69-.69h-35Z"/></g></g><g id="a922d60b-48cc-42c3-8460-ba6fd2277091" data-name="Group-51"><g class="a2d376a9-b246-4e1d-9f6b-037cd39b0c71"><path id="a2fcd692-611b-41dd-8880-3b1dee0d780e" data-name="Fill-49" class="b9ae0a7b-9c69-4bbe-a8aa-91338b29f071" d="M117.1,66.27,105.53,73a.68.68,0,0,0-.35.6h0V89.92a.7.7,0,0,0,.35.6h0L117.1,97.2a.73.73,0,0,0,.35.09h0a.67.67,0,0,0,.34-.09h0a.7.7,0,0,0,.35-.6h0V66.87a.68.68,0,0,0-.35-.6h0a.67.67,0,0,0-.34-.09h0a.73.73,0,0,0-.35.09ZM106.56,89.52V74l10.2-5.89V95.4Z"/></g></g><g id="bd56a597-e2fa-44d2-a295-8246823465ed" data-name="Group-56"><g class="bb2592e6-f3c1-478b-8ec2-dd6a913ee5d2"><path id="a618370d-ef3f-4d2f-94ef-63fbad6fb1d5" data-name="Fill-54" class="f5a6b1fb-b317-49ca-97d0-6c451784ad2e" d="M121.94,61.58l-4.84,2.79a.69.69,0,0,0-.34.6h0V98.5a.68.68,0,0,0,.34.59h0l4.84,2.79a.59.59,0,0,0,.34.1h0a.64.64,0,0,0,.35-.1h0a.68.68,0,0,0,.34-.59h0V62.18a.69.69,0,0,0-.34-.6h0a.73.73,0,0,0-.35-.09h0a.67.67,0,0,0-.34.09Zm-3.8,36.52V65.37l3.45-2v36.71Z"/></g></g><g id="a8b457c8-6893-4f6a-bcbc-9c6d513bf79f" data-name="Group-61"><g class="f1112b25-ed33-441a-a65a-461b57e32b7e"><path id="e568d8fc-1bd0-4962-86eb-efc6149e7147" data-name="Fill-59" class="b80bbe9b-5fab-4de3-85be-60af0905410b" d="M84.4,8a.52.52,0,0,0-.18.4h0V23.62a.53.53,0,0,0,.3.48h0a9,9,0,0,1,4.62,4.61h0a.51.51,0,0,0,.47.3h15.24a.52.52,0,0,0,.4-.18h0a.48.48,0,0,0,.11-.41h0A24.69,24.69,0,0,0,84.81,7.88h-.07A.5.5,0,0,0,84.4,8m.85,15.3V9a23.68,23.68,0,0,1,19,19H89.94a10.06,10.06,0,0,0-4.69-4.69"/></g></g><g id="a68b652c-8a00-4797-b6d5-4abd361caca7" data-name="Group-66"><g class="a029c04a-0d65-4bf1-a511-1104fe6d348a"><path id="b30b91c2-0948-40f2-b68d-2c51b7ac5183" data-name="Fill-64" class="f293c68e-6a46-4b07-b781-9a87c1b31a2b" d="M76.8,7.88A24.69,24.69,0,0,0,56.25,28.42h0a.52.52,0,0,0,.12.41h0a.48.48,0,0,0,.39.18H72a.53.53,0,0,0,.48-.3h0a9,9,0,0,1,4.61-4.61h0a.53.53,0,0,0,.31-.48h0V8.39a.55.55,0,0,0-.18-.4h0a.54.54,0,0,0-.34-.12H76.8M76.37,9V23.29A10,10,0,0,0,71.67,28H57.37a23.69,23.69,0,0,1,19-19"/></g></g><g id="e507025c-5979-446e-b877-e8ec00d7e5ac" data-name="Group-71"><g class="e886f0fb-1a7c-4d3a-a819-3d1022fb7c1e"><path id="fcb9d0a0-ba22-4c87-9418-a59b5742a82c" data-name="Fill-69" class="ac58213f-1b0f-4928-be7f-8078912c3e84" d="M56.76,35.83a.52.52,0,0,0-.39.18h0a.54.54,0,0,0-.12.42h0A24.72,24.72,0,0,0,76.8,57h.08a.54.54,0,0,0,.34-.12h0a.53.53,0,0,0,.18-.39h0V41.22a.51.51,0,0,0-.31-.47h0a9,9,0,0,1-4.61-4.61h0a.53.53,0,0,0-.48-.31H56.76Zm.61,1h14.3a10,10,0,0,0,4.7,4.69h0V55.84a23.69,23.69,0,0,1-19-19Z"/></g></g><g id="a1e2715c-3c29-482d-9506-d1c3b8d399d1" data-name="Group-76"><g class="e44bd67b-7b6f-4855-b159-9fbd71d3297d"><path id="b555e898-3fb6-42f3-bb3e-d087d13bcd46" data-name="Fill-74" class="e90d0c91-3c1b-4c6e-a6df-63fa68e87fb2" d="M89.61,35.83a.5.5,0,0,0-.47.31h0a9,9,0,0,1-4.62,4.61h0a.52.52,0,0,0-.3.47h0V56.46a.5.5,0,0,0,.18.39h0a.5.5,0,0,0,.33.12h.08a24.72,24.72,0,0,0,20.55-20.54h0a.5.5,0,0,0-.11-.42h0a.55.55,0,0,0-.4-.18H89.61Zm-4.36,5.72a10.06,10.06,0,0,0,4.69-4.69h14.3a23.68,23.68,0,0,1-19,19h0Z"/></g></g><g id="f0bade9b-47fa-4c47-a341-96b9b09f4829" data-name="Group-81"><g class="ecbd48f1-9968-4479-864d-bb6eddcd1116"><path id="e32cfae1-45cf-4916-b57e-9d237ffa00ed" data-name="Fill-79" class="be112a35-e177-4b0b-93c0-2e5e54060d0f" d="M25.69,24.11a.41.41,0,0,0-.13.28h0V35.17a.37.37,0,0,0,.22.33h0A6.33,6.33,0,0,1,29,38.76h0a.37.37,0,0,0,.33.22H40.15a.37.37,0,0,0,.28-.13h0a.36.36,0,0,0,.08-.3h0A17.48,17.48,0,0,0,26,24h-.05a.41.41,0,0,0-.24.08m.6,10.82V24.83A16.73,16.73,0,0,1,39.72,38.25H29.61a7.13,7.13,0,0,0-3.32-3.32"/></g></g><g id="bf37462a-a12a-4e03-9609-26f86f9277e7" data-name="Group-86"><g class="ad723e37-a8da-479f-bc1d-2306e27c173e"><path id="ff30dad1-8d19-4840-97ef-124aab976512" data-name="Fill-84" class="abd62ec9-e687-40bf-acc7-41c3456b9e79" d="M20.32,24A17.49,17.49,0,0,0,5.79,38.55h0a.36.36,0,0,0,.08.3h0a.37.37,0,0,0,.28.13H16.93a.37.37,0,0,0,.33-.22h0a6.36,6.36,0,0,1,3.26-3.26h0a.36.36,0,0,0,.22-.33h0V24.39a.41.41,0,0,0-.13-.28h0a.41.41,0,0,0-.24-.08h-.05m-.31.8v10.1a7.13,7.13,0,0,0-3.32,3.32H6.58A16.73,16.73,0,0,1,20,24.83"/></g></g><g id="e13bd5f5-f614-4a36-b17f-92b624cf89fc" data-name="Group-91"><g class="f3910e3e-8a9c-42f9-8a9a-f66962945fea"><path id="b7246be3-bfa3-4ecb-9e58-afafe31bd586" data-name="Fill-89" class="f9f2627a-587b-4757-ad10-5cda5f5d7eb5" d="M6.15,43.79a.37.37,0,0,0-.28.13h0a.36.36,0,0,0-.08.3h0A17.47,17.47,0,0,0,20.32,58.74h.06a.38.38,0,0,0,.23-.08h0a.37.37,0,0,0,.13-.28h0V47.61a.36.36,0,0,0-.22-.34h0A6.36,6.36,0,0,1,17.26,44h0a.37.37,0,0,0-.33-.22H6.15Zm.43.73H16.69A7.08,7.08,0,0,0,20,47.84h0V58A16.74,16.74,0,0,1,6.58,44.52Z"/></g></g><g id="a41611b6-7755-45b0-9dce-ed283bf8d746" data-name="Group-96"><g class="a551e27f-1592-410c-809e-9a0646cf4f5f"><path id="a850894b-fbc9-4005-a57d-304d7c757cff" data-name="Fill-94" class="fa8add34-7484-443f-adf5-345cf960dc6c" d="M29.37,43.79A.37.37,0,0,0,29,44h0a6.33,6.33,0,0,1-3.26,3.26h0a.38.38,0,0,0-.22.34h0V58.38a.37.37,0,0,0,.13.28h0a.41.41,0,0,0,.24.08H26A17.47,17.47,0,0,0,40.51,44.22h0a.36.36,0,0,0-.08-.3h0a.37.37,0,0,0-.28-.13H29.37Zm-3.08,4.05a7.08,7.08,0,0,0,3.32-3.32H39.72A16.74,16.74,0,0,1,26.29,58h0Z"/></g></g></g></g></g></g></svg>