<svg id="b4a8dab6-8445-4a6f-8609-7a87d10c3d8f" data-name="Capa 1" xmlns="http://www.w3.org/2000/svg" xmlns:xlink="http://www.w3.org/1999/xlink" viewBox="0 0 123 162"><defs><style>.a55039eb-df1c-4596-a8d9-a79a07c1d5ca{fill:#fff;}.a0799348-ac1f-49c1-9aa9-91c4fcd8cff5,.a1535e43-7920-4c2f-8d19-955c00fb25b7,.a4b3486e-fabc-4aff-8fad-783fdb8ca356,.a4f63053-0ce1-46f1-bf19-bc066d518ccf,.a55039eb-df1c-4596-a8d9-a79a07c1d5ca,.a84fa335-620a-4580-a57e-020a7044ee28,.aaba8c5e-10be-44f0-ad26-10a7225ba3bb,.ac190f4b-bfe4-4bfe-b04f-837b05ca12b9,.ae25f28c-968c-47f8-bdf8-1e6f92574268,.afcaaa35-6cb1-411c-a74e-a28cbb5dceb9,.b02a5cdd-51a4-4043-a051-d7025ec594c1,.b2c44e2d-3787-4b73-bafd-f9f7236d36f7,.b8839343-a3ce-477f-a7d7-993af1cc7e9d,.bc59dc72-5185-4dff-9a6c-246aeddfa1ac,.bf9abf44-1012-4d0c-990e-afd46466568e,.e53297b6-acf0-463b-a772-a7dd16f38f05,.ee9e627e-1690-4824-9c61-21f9f478b504,.eecbe5a5-927e-4c82-93d2-d822519da026,.f6deec9c-ccf1-4634-89c1-cc9bd7948fc0,.fa68a90d-a8b5-4c52-8e17-43e2b147a613,.fae3dcf7-0700-4969-a0ef-0d963d61d94a,.fb8f155b-c769-4b9f-8712-b629e1537fe5,.fc16fec5-45c9-4465-9246-a7062b4edec1{fill-rule:evenodd;}.b953883f-dc59-472f-acb7-9ede5e7ed3f4{mask:url(#f12c74ac-2b46-4248-8239-58923a9f6d89);}.b02a5cdd-51a4-4043-a051-d7025ec594c1{fill:url(#bea0a439-8253-4c90-a616-be5d0b1a5c0b);}.f40b668c-dec9-43a1-8d6e-a1704b7ef25a{mask:url(#a5231600-d91f-49ed-825b-27bdcd3e13a7);}.f6deec9c-ccf1-4634-89c1-cc9bd7948fc0{fill:url(#b8a60b7e-ae86-4d31-8106-55d6118116c7);}.a6d76d07-dfdb-41e1-90e4-56085129a557{mask:url(#ffcf0925-61d8-4e85-9291-68b0c2d2a567);}.eecbe5a5-927e-4c82-93d2-d822519da026{fill:url(#b8c53420-3499-408d-9e9f-36bfc2d7bd3c);}.f454babc-165a-4b63-a995-6575b24b1aec{mask:url(#bd72b4f5-23c7-431c-9ac2-0a483632d04a);}.ae25f28c-968c-47f8-bdf8-1e6f92574268{fill:url(#b6498cbd-1c37-43ff-b86e-d7a6274336db);}.accf1acd-a678-440c-8174-4d806a5817b7{mask:url(#e4eba866-6d92-47c3-9da3-b475b6f851f3);}.ac190f4b-bfe4-4bfe-b04f-837b05ca12b9{fill:url(#b62212a5-b2a6-4a6b-b72d-476e65120832);}.eaa7bd7e-704b-4e42-b1e5-4345056a5a72{mask:url(#e1eca88d-1fd2-437f-bc84-cac6f25fc78f);}.fb8f155b-c769-4b9f-8712-b629e1537fe5{fill:url(#e9e3d1f8-60f0-4033-b8ae-198e0660090d);}.b598ecbb-e31b-4978-9b3c-4b818f5e256a{mask:url(#b9b7a109-649f-4f2d-a358-f35f49a698f6);}.e53297b6-acf0-463b-a772-a7dd16f38f05{fill:url(#ae1d6545-cf19-494c-a66b-bba6749c9ee6);}.a5f84b4e-aeda-4deb-a593-bb4a7c8b6035{mask:url(#a671825b-c667-461b-88e3-7ce0c70e2b9e);}.bc59dc72-5185-4dff-9a6c-246aeddfa1ac{fill:url(#ad293a3e-7ffc-42d0-93ba-47738ae92dad);}.fb5a64f7-afa8-465f-8676-38bd49c2641a{mask:url(#e423c72f-abfe-4cf5-8bc5-a79eea7ba97b);}.aaba8c5e-10be-44f0-ad26-10a7225ba3bb{fill:url(#ee285574-32ef-4762-8a7e-a3a4f9dfd699);}.e0a20021-f325-4c39-9d52-acdf10ff75b8{mask:url(#be5126e8-a43b-4b3b-bdb7-0a6b3f9adb5f);}.a1535e43-7920-4c2f-8d19-955c00fb25b7{fill:url(#f6700fee-a8af-4bbf-923c-a94d92874a76);}.e9ea38b8-fe52-4a4a-975f-4a5f2a5035ff{mask:url(#b1bb8c32-6fef-4afa-8730-f995c7ab1cb0);}.a84fa335-620a-4580-a57e-020a7044ee28{fill:url(#ace00933-c58c-491c-a619-98e3b82842f9);}.ad6b43a1-0b45-441b-bc2a-320329e32ea0{mask:url(#a3273c7a-d51d-4734-9cbc-39f3f52ee68d);}.a4b3486e-fabc-4aff-8fad-783fdb8ca356{fill:url(#bf1f7724-c98a-498b-bf00-f01e48bb8fda);}.e4dda0f3-61dd-421c-81e6-c731bddfa1ec{mask:url(#b72770ce-ce6b-409a-81ba-e37549098261);}.fa68a90d-a8b5-4c52-8e17-43e2b147a613{fill:url(#a767cc16-ed6e-4af9-a14e-1025c4569a18);}.add51a93-b12f-466c-bbda-44765aab3484{mask:url(#e75a8ea0-0c51-4267-a374-2a14e8224cd5);}.a0799348-ac1f-49c1-9aa9-91c4fcd8cff5{fill:url(#f9f31b2e-3abb-4827-9259-35efc1b74102);}.b2f1a243-10a0-4da2-b44c-124233a59c87{mask:url(#b6cc10ef-3167-4aa1-857d-3488c62d5cb3);}.ee9e627e-1690-4824-9c61-21f9f478b504{fill:url(#ad33b6f4-25cd-4265-8027-d932fd6162f2);}.bfecc8aa-f100-48e8-bb67-d7429a022110{mask:url(#bc536f2b-c80b-4fb4-bc04-6c619b863b2b);}.bf9abf44-1012-4d0c-990e-afd46466568e{fill:url(#b57d9abf-2b6d-48e2-9387-8e9cb06a7172);}.f67c42eb-e231-4ce5-8bab-53e5f1e75220{mask:url(#a3a90ec5-dd7b-44be-b0c1-2f16b3264f0b);}.afcaaa35-6cb1-411c-a74e-a28cbb5dceb9{fill:url(#ea30d968-c46e-4d3a-8d9a-056f70062142);}.bf1a67f3-4c36-4dce-a61c-e6efbe990504{mask:url(#afca5b48-97d2-43bc-b9b4-0ca271ee4334);}.fae3dcf7-0700-4969-a0ef-0d963d61d94a{fill:url(#e7c3d51b-fc08-4ccf-a32c-ebe44a9b2cb3);}.e95a1e35-794b-4f07-875d-2f8679825fbd{mask:url(#a9c77e0c-3fe7-46d1-9242-b8a7eb10f957);}.a4f63053-0ce1-46f1-bf19-bc066d518ccf{fill:url(#e4306f92-856e-46d3-a041-697b6de608bd);}.a64ae552-f75e-4fcd-977f-2fcca7febe22{mask:url(#aaecef03-c0c9-4945-89e7-d3f5207b56c7);}.fc16fec5-45c9-4465-9246-a7062b4edec1{fill:url(#ec37c66e-b1f3-47e5-a3f8-0f46ab591c1d);}.bae9a7bc-43e8-4ed5-982c-da3552c8d344{mask:url(#fbb1aecf-5e30-4e58-b54f-30a29ea42c72);}.b2c44e2d-3787-4b73-bafd-f9f7236d36f7{fill:url(#be1315d7-e6a7-496d-be34-f282f9f7982d);}.e4deee4e-b738-483e-94b4-e17a3821587c{mask:url(#be172fb4-8e6c-4b34-a084-214589d21ad5);}.b8839343-a3ce-477f-a7d7-993af1cc7e9d{fill:url(#b120f4d2-d3a6-4324-9818-ba6caaa547ae);}</style><mask id="f12c74ac-2b46-4248-8239-58923a9f6d89" x="8.78" y="57.37" width="95.04" height="48.73" maskUnits="userSpaceOnUse"><g id="e42566d4-d019-4c46-80fd-08acdc226cc7" data-name="mask-2"><path id="b3ac5007-296f-4b7a-a892-ce95efde6ec8" data-name="path-1" class="a55039eb-df1c-4596-a8d9-a79a07c1d5ca" d="M18,57.37a9.26,9.26,0,0,0-9.25,9.24h0V96.85A9.26,9.26,0,0,0,18,106.1H94.57a9.26,9.26,0,0,0,9.25-9.25h0V66.61a9.26,9.26,0,0,0-9.25-9.24H18ZM10.16,96.85V66.61A7.88,7.88,0,0,1,18,58.75H94.57a7.88,7.88,0,0,1,7.87,7.86h0V96.85a7.88,7.88,0,0,1-7.87,7.87H18a7.88,7.88,0,0,1-7.87-7.87Z"/></g></mask><linearGradient id="bea0a439-8253-4c90-a616-be5d0b1a5c0b" x1="-79.16" y1="221.73" x2="-78.16" y2="221.73" gradientTransform="matrix(95.04, 0, 0, -48.73, 7531.87, 10886.79)" gradientUnits="userSpaceOnUse"><stop offset="0" stop-color="#7c72ff"/><stop offset="1" stop-color="#6d64f4"/></linearGradient><mask id="a5231600-d91f-49ed-825b-27bdcd3e13a7" x="49.01" y="0.64" width="63.6" height="63.56" maskUnits="userSpaceOnUse"><g id="af37723a-f0e8-4a94-b1e6-dfaf10b0e00d" data-name="mask-5"><path id="a8f08a58-7b41-4853-aeb1-d5c760565b34" data-name="path-4" class="a55039eb-df1c-4596-a8d9-a79a07c1d5ca" d="M80.81.64A31.82,31.82,0,0,0,49,32.42h0A31.82,31.82,0,0,0,80.81,64.2h0A31.82,31.82,0,0,0,112.6,32.42h0A31.82,31.82,0,0,0,80.81.64ZM50.39,32.42A30.45,30.45,0,0,1,80.81,2h0a30.44,30.44,0,0,1,30.41,30.4h0a30.43,30.43,0,0,1-30.41,30.4h0a30.44,30.44,0,0,1-30.42-30.4Z"/></g></mask><linearGradient id="b8a60b7e-ae86-4d31-8106-55d6118116c7" x1="-78.74" y1="222.02" x2="-77.74" y2="222.02" gradientTransform="matrix(63.6, 0, 0, -63.56, 5056.65, 14144.84)" xlink:href="#bea0a439-8253-4c90-a616-be5d0b1a5c0b"/><mask id="ffcf0925-61d8-4e85-9291-68b0c2d2a567" x="0" y="18.33" width="45.9" height="45.88" maskUnits="userSpaceOnUse"><g id="b2d918fa-78af-42b6-9580-0e7059e83600" data-name="mask-8"><path id="e7d9e8e2-c991-41d3-8b00-1f9a5aa65310" data-name="path-7" class="a55039eb-df1c-4596-a8d9-a79a07c1d5ca" d="M0,41.27A23,23,0,0,0,23,64.2h0a23,23,0,0,0,23-22.93h0A23,23,0,0,0,23,18.33h0A23,23,0,0,0,0,41.27m1.38,0A21.59,21.59,0,0,1,23,19.71h0A21.59,21.59,0,0,1,44.52,41.27h0A21.59,21.59,0,0,1,23,62.82h0A21.59,21.59,0,0,1,1.38,41.27"/></g></mask><linearGradient id="b8c53420-3499-408d-9e9f-36bfc2d7bd3c" x1="-78.26" y1="221.66" x2="-77.26" y2="221.66" gradientTransform="matrix(45.9, 0, 0, -45.88, 3592.06, 10210.3)" xlink:href="#bea0a439-8253-4c90-a616-be5d0b1a5c0b"/><mask id="bd72b4f5-23c7-431c-9ac2-0a483632d04a" x="74.97" y="26.59" width="11.67" height="11.66" maskUnits="userSpaceOnUse"><g id="a9e39ed3-2691-4123-88fd-76861a743796" data-name="mask-11"><path id="a94ca3ed-5488-4915-bedc-017be3fb896c" data-name="path-10" class="a55039eb-df1c-4596-a8d9-a79a07c1d5ca" d="M75,32.42a5.84,5.84,0,0,0,5.84,5.83h0a5.84,5.84,0,0,0,5.83-5.83h0a5.84,5.84,0,0,0-5.83-5.83h0A5.84,5.84,0,0,0,75,32.42m.61,0a5.23,5.23,0,0,1,5.23-5.22h0A5.22,5.22,0,0,1,86,32.42h0a5.22,5.22,0,0,1-5.22,5.22h0a5.23,5.23,0,0,1-5.23-5.22"/></g></mask><linearGradient id="b6498cbd-1c37-43ff-b86e-d7a6274336db" x1="-73.14" y1="217.82" x2="-72.14" y2="217.82" gradientTransform="matrix(11.67, 0, 0, -11.66, 928.54, 2573.08)" xlink:href="#bea0a439-8253-4c90-a616-be5d0b1a5c0b"/><mask id="e4eba866-6d92-47c3-9da3-b475b6f851f3" x="40.33" y="104.72" width="31.95" height="8.65" maskUnits="userSpaceOnUse"><g id="b8067482-f885-4951-b8f7-25e12ca94a38" data-name="mask-14"><path id="f4b5b576-b048-4a16-920a-43c243964e59" data-name="path-13" class="a55039eb-df1c-4596-a8d9-a79a07c1d5ca" d="M41,104.72a.69.69,0,0,0-.69.69h0v.29A7.68,7.68,0,0,0,48,113.37H64.6a7.68,7.68,0,0,0,7.67-7.67h0v-.29a.69.69,0,0,0-.69-.69H41Zm.7,1.38H70.88A6.31,6.31,0,0,1,64.6,112H48a6.31,6.31,0,0,1-6.28-5.89Z"/></g></mask><linearGradient id="b62212a5-b2a6-4a6b-b72d-476e65120832" x1="-77.5" y1="216.03" x2="-76.5" y2="216.03" gradientTransform="matrix(31.95, 0, 0, -8.65, 2515.96, 1978.41)" xlink:href="#bea0a439-8253-4c90-a616-be5d0b1a5c0b"/><mask id="e1eca88d-1fd2-437f-bc84-cac6f25fc78f" x="55.61" y="111.99" width="1.38" height="48.88" maskUnits="userSpaceOnUse"><g id="a56b111c-8d57-4896-a70a-4874aab47686" data-name="mask-17"><path id="f5701706-e8e8-4f31-8247-6344c2128a69" data-name="path-16" class="a55039eb-df1c-4596-a8d9-a79a07c1d5ca" d="M55.61,112.68v47.5a.69.69,0,0,0,.69.69h0a.69.69,0,0,0,.69-.69h0v-47.5a.69.69,0,0,0-.69-.69h0a.69.69,0,0,0-.69.69"/></g></mask><linearGradient id="e9e3d1f8-60f0-4033-b8ae-198e0660090d" x1="-22.08" y1="221.74" x2="-21.08" y2="221.74" gradientTransform="matrix(1.38, 0, 0, -48.88, 86.11, 10973.9)" xlink:href="#bea0a439-8253-4c90-a616-be5d0b1a5c0b"/><mask id="b9b7a109-649f-4f2d-a358-f35f49a698f6" x="7.53" y="111.99" width="49.46" height="49.44" maskUnits="userSpaceOnUse"><g id="a5b88f7f-dd17-4027-ad81-f023610a6240" data-name="mask-20"><path id="b4e4c3a2-ed8c-4d13-b187-514751992914" data-name="path-19" class="a55039eb-df1c-4596-a8d9-a79a07c1d5ca" d="M55.81,112.19,7.74,160.25a.69.69,0,0,0,0,1h0a.69.69,0,0,0,.48.2h0a.7.7,0,0,0,.49-.2h0l48.08-48.06a.69.69,0,0,0,0-1h0a.71.71,0,0,0-.49-.2h0a.71.71,0,0,0-.49.2"/></g></mask><linearGradient id="ae1d6545-cf19-494c-a66b-bba6749c9ee6" x1="-78.38" y1="221.75" x2="-77.38" y2="221.75" gradientTransform="matrix(49.46, 0, 0, -49.44, 3884.15, 11099.24)" xlink:href="#bea0a439-8253-4c90-a616-be5d0b1a5c0b"/><mask id="a671825b-c667-461b-88e3-7ce0c70e2b9e" x="55.61" y="111.99" width="49.46" height="49.44" maskUnits="userSpaceOnUse"><g id="a5dd2bef-4a41-4693-81d6-f678d1c5a4bf" data-name="mask-23"><path id="ba85847f-a55b-4628-a749-421f5f9c1a30" data-name="path-22" class="a55039eb-df1c-4596-a8d9-a79a07c1d5ca" d="M55.81,112.19a.69.69,0,0,0,0,1h0l48.08,48.06a.7.7,0,0,0,.49.2h0a.73.73,0,0,0,.49-.2h0a.69.69,0,0,0,0-1h0L56.79,112.19a.71.71,0,0,0-.49-.2h0a.71.71,0,0,0-.49.2"/></g></mask><linearGradient id="ad293a3e-7ffc-42d0-93ba-47738ae92dad" x1="-78.38" y1="221.75" x2="-77.38" y2="221.75" gradientTransform="matrix(49.46, 0, 0, -49.44, 3932.24, 11099.24)" xlink:href="#bea0a439-8253-4c90-a616-be5d0b1a5c0b"/><mask id="e423c72f-abfe-4cf5-8bc5-a79eea7ba97b" x="17.57" y="92.03" width="26.85" height="6.51" maskUnits="userSpaceOnUse"><g id="a83a2601-6284-4c23-8cb4-9c7d4f70f6c0" data-name="mask-26"><path id="bd0ace9a-867d-4162-b558-7754731d7743" data-name="path-25" class="a55039eb-df1c-4596-a8d9-a79a07c1d5ca" d="M18.26,92a.69.69,0,0,0-.69.69h0v5.13a.69.69,0,0,0,.69.69H43.73a.69.69,0,0,0,.69-.69h0V92.72a.69.69,0,0,0-.69-.69H18.26ZM19,97.16H43V93.41H19Z"/></g></mask><linearGradient id="ee285574-32ef-4762-8a7e-a3a4f9dfd699" x1="-77.02" y1="213.75" x2="-76.02" y2="213.75" gradientTransform="matrix(26.85, 0, 0, -6.51, 2085.76, 1487.37)" xlink:href="#bea0a439-8253-4c90-a616-be5d0b1a5c0b"/><mask id="be5126e8-a43b-4b3b-bdb7-0a6b3f9adb5f" x="47.32" y="92.03" width="6.63" height="6.51" maskUnits="userSpaceOnUse"><g id="bd4f6389-aae4-4f7e-b500-fc70334c5221" data-name="mask-29"><path id="a93d33ea-17db-4915-931e-f6d20d072a52" data-name="path-28" class="a55039eb-df1c-4596-a8d9-a79a07c1d5ca" d="M48,92a.69.69,0,0,0-.69.69h0v5.13a.69.69,0,0,0,.69.69h5.25a.69.69,0,0,0,.69-.69h0V92.72a.69.69,0,0,0-.69-.69H48Zm.69,5.13h3.86V93.41H48.7Z"/></g></mask><linearGradient id="f6700fee-a8af-4bbf-923c-a94d92874a76" x1="-67.93" y1="213.75" x2="-66.93" y2="213.75" gradientTransform="matrix(6.63, 0, 0, -6.51, 497.4, 1487.37)" xlink:href="#bea0a439-8253-4c90-a616-be5d0b1a5c0b"/><mask id="b1bb8c32-6fef-4afa-8730-f995c7ab1cb0" x="17.57" y="84.32" width="26.85" height="1.38" maskUnits="userSpaceOnUse"><g id="baa12769-f34a-4534-ad4c-bc83fcd93891" data-name="mask-32"><path id="bb7fef43-d5e2-473a-8a12-04b96b4534c6" data-name="path-31" class="a55039eb-df1c-4596-a8d9-a79a07c1d5ca" d="M18.26,84.32a.69.69,0,0,0-.69.69h0a.69.69,0,0,0,.69.69H43.73a.69.69,0,0,0,.69-.69h0a.69.69,0,0,0-.69-.69H18.26Z"/></g></mask><linearGradient id="ace00933-c58c-491c-a619-98e3b82842f9" x1="-77.02" y1="179.5" x2="-76.02" y2="179.5" gradientTransform="matrix(26.85, 0, 0, -1.38, 2085.76, 332.82)" xlink:href="#bea0a439-8253-4c90-a616-be5d0b1a5c0b"/><mask id="a3273c7a-d51d-4734-9cbc-39f3f52ee68d" x="17.57" y="77.33" width="36.38" height="1.38" maskUnits="userSpaceOnUse"><g id="f0377a9d-d5f5-4222-8add-b0e6ef1bbace" data-name="mask-35"><path id="ef21225b-ab5c-4a9b-bac4-23ccdbe0c90e" data-name="path-34" class="a55039eb-df1c-4596-a8d9-a79a07c1d5ca" d="M18.26,77.33a.69.69,0,0,0-.69.69h0a.69.69,0,0,0,.69.7h35A.69.69,0,0,0,54,78h0a.69.69,0,0,0-.69-.69h-35Z"/></g></mask><linearGradient id="bf1f7724-c98a-498b-bf00-f01e48bb8fda" x1="-77.8" y1="179.52" x2="-76.8" y2="179.52" gradientTransform="matrix(36.38, 0, 0, -1.38, 2847.75, 325.98)" xlink:href="#bea0a439-8253-4c90-a616-be5d0b1a5c0b"/><mask id="b72770ce-ce6b-409a-81ba-e37549098261" x="105.18" y="66.18" width="12.96" height="31.11" maskUnits="userSpaceOnUse"><g id="e2483d74-cc6d-4ae2-9d23-f31d3975a810" data-name="mask-38"><path id="b92d67a2-077f-4397-ac19-d284f675650a" data-name="path-37" class="a55039eb-df1c-4596-a8d9-a79a07c1d5ca" d="M117.1,66.27,105.53,73a.68.68,0,0,0-.35.6h0V89.92a.7.7,0,0,0,.35.6h0L117.1,97.2a.73.73,0,0,0,.35.09h0a.67.67,0,0,0,.34-.09h0a.7.7,0,0,0,.35-.6h0V66.87a.68.68,0,0,0-.35-.6h0a.67.67,0,0,0-.34-.09h0a.73.73,0,0,0-.35.09ZM106.56,89.52V74l10.2-5.89V95.4Z"/></g></mask><linearGradient id="a767cc16-ed6e-4af9-a14e-1025c4569a18" x1="-73.83" y1="221.04" x2="-72.83" y2="221.04" gradientTransform="matrix(12.96, 0, 0, -31.11, 1061.66, 6958.11)" xlink:href="#bea0a439-8253-4c90-a616-be5d0b1a5c0b"/><mask id="e75a8ea0-0c51-4267-a374-2a14e8224cd5" x="116.76" y="61.49" width="6.22" height="40.49" maskUnits="userSpaceOnUse"><g id="b1c24909-5e98-4281-ac51-dbb732990a2f" data-name="mask-41"><path id="f327e978-8bc9-4dac-82d4-7cf2f912b46d" data-name="path-40" class="a55039eb-df1c-4596-a8d9-a79a07c1d5ca" d="M121.94,61.58l-4.84,2.79a.69.69,0,0,0-.34.6h0V98.5a.68.68,0,0,0,.34.59h0l4.84,2.79a.59.59,0,0,0,.34.1h0a.64.64,0,0,0,.35-.1h0a.68.68,0,0,0,.34-.59h0V62.18a.69.69,0,0,0-.34-.6h0a.73.73,0,0,0-.35-.09h0a.67.67,0,0,0-.34.09Zm-3.8,36.52V65.37l3.45-2v36.71Z"/></g></mask><linearGradient id="f9f31b2e-3abb-4827-9259-35efc1b74102" x1="-67.13" y1="221.48" x2="-66.13" y2="221.48" gradientTransform="matrix(6.22, 0, 0, -40.49, 534.04, 9049.23)" xlink:href="#bea0a439-8253-4c90-a616-be5d0b1a5c0b"/><mask id="b6cc10ef-3167-4aa1-857d-3488c62d5cb3" x="84.22" y="7.87" width="21.15" height="21.14" maskUnits="userSpaceOnUse"><g id="f4f46784-66df-4fc6-981f-280de98986ee" data-name="mask-44"><path id="e7012514-d062-4d3e-821a-cd6304f9fabd" data-name="path-43" class="a55039eb-df1c-4596-a8d9-a79a07c1d5ca" d="M84.4,8a.52.52,0,0,0-.18.4h0V23.62a.53.53,0,0,0,.3.48h0a9,9,0,0,1,4.62,4.61h0a.51.51,0,0,0,.47.3h15.24a.52.52,0,0,0,.4-.18h0a.48.48,0,0,0,.11-.41h0A24.69,24.69,0,0,0,84.81,7.88h-.07A.5.5,0,0,0,84.4,8m.85,15.3V9a23.68,23.68,0,0,1,19,19H89.94a10.06,10.06,0,0,0-4.69-4.69"/></g></mask><linearGradient id="ad33b6f4-25cd-4265-8027-d932fd6162f2" x1="-76.22" y1="220.13" x2="-75.22" y2="220.13" gradientTransform="matrix(21.15, 0, 0, -21.14, 1696.57, 4672.64)" xlink:href="#bea0a439-8253-4c90-a616-be5d0b1a5c0b"/><mask id="bc536f2b-c80b-4fb4-bc04-6c619b863b2b" x="56.24" y="7.87" width="21.16" height="21.14" maskUnits="userSpaceOnUse"><g id="b3d2e4b7-51bb-400e-bd73-c476b281274c" data-name="mask-47"><path id="e79fe60b-4b70-4b6e-9fd8-910bdc5e3a79" data-name="path-46" class="a55039eb-df1c-4596-a8d9-a79a07c1d5ca" d="M76.8,7.88A24.69,24.69,0,0,0,56.25,28.42h0a.52.52,0,0,0,.12.41h0a.48.48,0,0,0,.39.18H72a.53.53,0,0,0,.48-.3h0a9,9,0,0,1,4.61-4.61h0a.53.53,0,0,0,.31-.48h0V8.39a.55.55,0,0,0-.18-.4h0a.54.54,0,0,0-.34-.12H76.8M76.37,9V23.29A10,10,0,0,0,71.67,28H57.37a23.69,23.69,0,0,1,19-19"/></g></mask><linearGradient id="b57d9abf-2b6d-48e2-9387-8e9cb06a7172" x1="-76.22" y1="220.13" x2="-75.22" y2="220.13" gradientTransform="matrix(21.16, 0, 0, -21.14, 1668.67, 4672.64)" xlink:href="#bea0a439-8253-4c90-a616-be5d0b1a5c0b"/><mask id="a3a90ec5-dd7b-44be-b0c1-2f16b3264f0b" x="56.24" y="35.83" width="21.16" height="21.15" maskUnits="userSpaceOnUse"><g id="bd6e0508-e852-47db-a6e4-6fd0808ad67a" data-name="mask-50"><path id="f59de522-5b2b-49f8-94fd-480ce9282c6c" data-name="path-49" class="a55039eb-df1c-4596-a8d9-a79a07c1d5ca" d="M56.76,35.83a.52.52,0,0,0-.39.18h0a.54.54,0,0,0-.12.42h0A24.72,24.72,0,0,0,76.8,57h.08a.54.54,0,0,0,.34-.12h0a.53.53,0,0,0,.18-.39h0V41.22a.51.51,0,0,0-.31-.47h0a9,9,0,0,1-4.61-4.61h0a.53.53,0,0,0-.48-.31H56.76Zm.61,1h14.3a10,10,0,0,0,4.7,4.69h0V55.84a23.69,23.69,0,0,1-19-19Z"/></g></mask><linearGradient id="ea30d968-c46e-4d3a-8d9a-056f70062142" x1="-76.22" y1="220.13" x2="-75.22" y2="220.13" gradientTransform="matrix(21.16, 0, 0, -21.15, 1668.67, 4701.02)" xlink:href="#bea0a439-8253-4c90-a616-be5d0b1a5c0b"/><mask id="afca5b48-97d2-43bc-b9b4-0ca271ee4334" x="84.22" y="35.83" width="21.15" height="21.15" maskUnits="userSpaceOnUse"><g id="b800b3c1-76ad-4f9a-bd97-a5057fb8d3fd" data-name="mask-53"><path id="ba03cbe4-efc9-4370-8276-9d1a43cfc0c9" data-name="path-52" class="a55039eb-df1c-4596-a8d9-a79a07c1d5ca" d="M89.61,35.83a.5.5,0,0,0-.47.31h0a9,9,0,0,1-4.62,4.61h0a.52.52,0,0,0-.3.47h0V56.46a.5.5,0,0,0,.18.39h0a.5.5,0,0,0,.33.12h.08a24.72,24.72,0,0,0,20.55-20.54h0a.5.5,0,0,0-.11-.42h0a.55.55,0,0,0-.4-.18H89.61Zm-4.36,5.72a10.06,10.06,0,0,0,4.69-4.69h14.3a23.68,23.68,0,0,1-19,19h0Z"/></g></mask><linearGradient id="e7c3d51b-fc08-4ccf-a32c-ebe44a9b2cb3" x1="-76.22" y1="220.13" x2="-75.22" y2="220.13" gradientTransform="matrix(21.15, 0, 0, -21.15, 1696.57, 4701.02)" xlink:href="#bea0a439-8253-4c90-a616-be5d0b1a5c0b"/><mask id="a9c77e0c-3fe7-46d1-9242-b8a7eb10f957" x="25.56" y="24.03" width="14.96" height="14.95" maskUnits="userSpaceOnUse"><g id="b2bba5dc-fa88-4f6a-b055-6ff4fc9352c5" data-name="mask-56"><path id="ab900b3e-76b8-4a6f-b31c-a8a39e8b4085" data-name="path-55" class="a55039eb-df1c-4596-a8d9-a79a07c1d5ca" d="M25.69,24.11a.41.41,0,0,0-.13.28h0V35.17a.37.37,0,0,0,.22.33h0A6.33,6.33,0,0,1,29,38.76h0a.37.37,0,0,0,.33.22H40.15a.37.37,0,0,0,.28-.13h0a.36.36,0,0,0,.08-.3h0A17.48,17.48,0,0,0,26,24h-.05a.41.41,0,0,0-.24.08m.6,10.82V24.83A16.73,16.73,0,0,1,39.72,38.25H29.61a7.13,7.13,0,0,0-3.32-3.32"/></g></mask><linearGradient id="e4306f92-856e-46d3-a041-697b6de608bd" x1="-74.65" y1="218.95" x2="-73.65" y2="218.95" gradientTransform="matrix(14.96, 0, 0, -14.95, 1142.01, 3304.42)" xlink:href="#bea0a439-8253-4c90-a616-be5d0b1a5c0b"/><mask id="aaecef03-c0c9-4945-89e7-d3f5207b56c7" x="5.78" y="24.03" width="14.96" height="14.95" maskUnits="userSpaceOnUse"><g id="b5116f37-2f13-4962-825a-ec9265964133" data-name="mask-59"><path id="bc85bd3a-0147-4cf2-8758-d2eddbde8010" data-name="path-58" class="a55039eb-df1c-4596-a8d9-a79a07c1d5ca" d="M20.32,24A17.49,17.49,0,0,0,5.79,38.55h0a.36.36,0,0,0,.08.3h0a.37.37,0,0,0,.28.13H16.93a.37.37,0,0,0,.33-.22h0a6.36,6.36,0,0,1,3.26-3.26h0a.36.36,0,0,0,.22-.33h0V24.39a.41.41,0,0,0-.13-.28h0a.41.41,0,0,0-.24-.08h-.05m-.31.8v10.1a7.13,7.13,0,0,0-3.32,3.32H6.58A16.73,16.73,0,0,1,20,24.83"/></g></mask><linearGradient id="ec37c66e-b1f3-47e5-a3f8-0f46ab591c1d" x1="-74.65" y1="218.95" x2="-73.65" y2="218.95" gradientTransform="matrix(14.96, 0, 0, -14.95, 1122.35, 3304.42)" xlink:href="#bea0a439-8253-4c90-a616-be5d0b1a5c0b"/><mask id="fbb1aecf-5e30-4e58-b54f-30a29ea42c72" x="5.78" y="43.79" width="14.96" height="14.95" maskUnits="userSpaceOnUse"><g id="a4ff4388-c7e0-402d-bbfe-fd0fb07b1938" data-name="mask-62"><path id="f7e6cf25-c881-4117-91d0-cd7d809aa60d" data-name="path-61" class="a55039eb-df1c-4596-a8d9-a79a07c1d5ca" d="M6.15,43.79a.37.37,0,0,0-.28.13h0a.36.36,0,0,0-.08.3h0A17.47,17.47,0,0,0,20.32,58.74h.06a.38.38,0,0,0,.23-.08h0a.37.37,0,0,0,.13-.28h0V47.61a.36.36,0,0,0-.22-.34h0A6.36,6.36,0,0,1,17.26,44h0a.37.37,0,0,0-.33-.22H6.15Zm.43.73H16.69A7.08,7.08,0,0,0,20,47.84h0V58A16.74,16.74,0,0,1,6.58,44.52Z"/></g></mask><linearGradient id="be1315d7-e6a7-496d-be34-f282f9f7982d" x1="-74.65" y1="218.95" x2="-73.65" y2="218.95" gradientTransform="matrix(14.96, 0, 0, -14.95, 1122.35, 3324.61)" xlink:href="#bea0a439-8253-4c90-a616-be5d0b1a5c0b"/><mask id="be172fb4-8e6c-4b34-a084-214589d21ad5" x="25.56" y="43.79" width="14.96" height="14.95" maskUnits="userSpaceOnUse"><g id="a7a64c18-df5a-4e6e-8f54-9c20005cdf4b" data-name="mask-65"><path id="a5cb1c3d-6716-42c8-900f-ef2e709995c7" data-name="path-64" class="a55039eb-df1c-4596-a8d9-a79a07c1d5ca" d="M29.37,43.79A.37.37,0,0,0,29,44h0a6.33,6.33,0,0,1-3.26,3.26h0a.38.38,0,0,0-.22.34h0V58.38a.37.37,0,0,0,.13.28h0a.41.41,0,0,0,.24.08H26A17.47,17.47,0,0,0,40.51,44.22h0a.36.36,0,0,0-.08-.3h0a.37.37,0,0,0-.28-.13H29.37Zm-3.08,4.05a7.08,7.08,0,0,0,3.32-3.32H39.72A16.74,16.74,0,0,1,26.29,58h0Z"/></g></mask><linearGradient id="b120f4d2-d3a6-4324-9818-ba6caaa547ae" x1="-74.65" y1="218.95" x2="-73.65" y2="218.95" gradientTransform="matrix(14.96, 0, 0, -14.95, 1142.01, 3324.61)" xlink:href="#bea0a439-8253-4c90-a616-be5d0b1a5c0b"/></defs><g id="b05d37b3-5275-405a-8ee7-bda9cee6cdbf" data-name="GIFOS"><g id="ba983610-e22b-4029-a775-3c2bddb86f14" data-name="00-UI-Kit"><g id="b5fbd5f2-96c3-4a0a-9c63-0e05b7fc6e42" data-name="camara"><g id="f7abac8f-9b60-4501-ba1a-cacdb61099b5" data-name="Group-97"><g id="b3a5c2e4-ea88-4c7e-8601-64dd96385f06" data-name="Group-5"><g class="b953883f-dc59-472f-acb7-9ede5e7ed3f4"><path id="a47896ef-6c60-439a-a3e6-432d227d666e" data-name="Fill-3" class="b02a5cdd-51a4-4043-a051-d7025ec594c1" d="M18,57.37a9.26,9.26,0,0,0-9.25,9.24h0V96.85A9.26,9.26,0,0,0,18,106.1H94.57a9.26,9.26,0,0,0,9.25-9.25h0V66.61a9.26,9.26,0,0,0-9.25-9.24H18ZM10.16,96.85V66.61A7.88,7.88,0,0,1,18,58.75H94.57a7.88,7.88,0,0,1,7.87,7.86h0V96.85a7.88,7.88,0,0,1-7.87,7.87H18a7.88,7.88,0,0,1-7.87-7.87Z"/></g></g><g id="a65e2966-f7b8-40c4-a0cc-f19fcfa144a0" data-name="Group-10"><g class="f40b668c-dec9-43a1-8d6e-a1704b7ef25a"><path id="a9eb843a-fe41-48e9-bf4a-83c3b45e0277" data-name="Fill-8" class="f6deec9c-ccf1-4634-89c1-cc9bd7948fc0" d="M80.81.64A31.82,31.82,0,0,0,49,32.42h0A31.82,31.82,0,0,0,80.81,64.2h0A31.82,31.82,0,0,0,112.6,32.42h0A31.82,31.82,0,0,0,80.81.64ZM50.39,32.42A30.45,30.45,0,0,1,80.81,2h0a30.44,30.44,0,0,1,30.41,30.4h0a30.43,30.43,0,0,1-30.41,30.4h0a30.44,30.44,0,0,1-30.42-30.4Z"/></g></g><g id="bb3a6f25-cd03-4a71-8f8d-1b0226436264" data-name="Group-15"><g class="a6d76d07-dfdb-41e1-90e4-56085129a557"><path id="b314ca6f-0a87-4783-b0c6-d4baafb52a9e" data-name="Fill-13" class="eecbe5a5-927e-4c82-93d2-d822519da026" d="M0,41.27A23,23,0,0,0,23,64.2h0a23,23,0,0,0,23-22.93h0A23,23,0,0,0,23,18.33h0A23,23,0,0,0,0,41.27m1.38,0A21.59,21.59,0,0,1,23,19.71h0A21.59,21.59,0,0,1,44.52,41.27h0A21.59,21.59,0,0,1,23,62.82h0A21.59,21.59,0,0,1,1.38,41.27"/></g></g><g id="bf255cbf-e431-40e1-8389-fa7abb3eb618" data-name="Group-20"><g class="f454babc-165a-4b63-a995-6575b24b1aec"><path id="a5d262fb-2e2c-4ff7-9650-00724589072a" data-name="Fill-18" class="ae25f28c-968c-47f8-bdf8-1e6f92574268" d="M75,32.42a5.84,5.84,0,0,0,5.84,5.83h0a5.84,5.84,0,0,0,5.83-5.83h0a5.84,5.84,0,0,0-5.83-5.83h0A5.84,5.84,0,0,0,75,32.42m.61,0a5.23,5.23,0,0,1,5.23-5.22h0A5.22,5.22,0,0,1,86,32.42h0a5.22,5.22,0,0,1-5.22,5.22h0a5.23,5.23,0,0,1-5.23-5.22"/></g></g><g id="ac1710f1-dc3c-4136-adf9-fb6847736043" data-name="Group-25"><g class="accf1acd-a678-440c-8174-4d806a5817b7"><path id="e0dd3afa-663a-4fda-8028-4e8d7db15e83" data-name="Fill-23" class="ac190f4b-bfe4-4bfe-b04f-837b05ca12b9" d="M41,104.72a.69.69,0,0,0-.69.69h0v.29A7.68,7.68,0,0,0,48,113.37H64.6a7.68,7.68,0,0,0,7.67-7.67h0v-.29a.69.69,0,0,0-.69-.69H41Zm.7,1.38H70.88A6.31,6.31,0,0,1,64.6,112H48a6.31,6.31,0,0,1-6.28-5.89Z"/></g></g><g id="ab8b3e72-9d21-433d-808c-6e48a8df4d34" data-name="Group-28"><g class="eaa7bd7e-704b-4e42-b1e5-4345056a5a72"><path id="ab8d7d3b-65b3-4bc8-a056-1bbb66e0fe91" data-name="Fill-26" class="fb8f155b-c769-4b9f-8712-b629e1537fe5" d="M55.61,112.68v47.5a.69.69,0,0,0,.69.69h0a.69.69,0,0,0,.69-.69h0v-47.5a.69.69,0,0,0-.69-.69h0a.69.69,0,0,0-.69.69"/></g></g><g id="a2c946ea-cacc-49dc-838a-ab38163f7f9a" data-name="Group-31"><g class="b598ecbb-e31b-4978-9b3c-4b818f5e256a"><path id="a498ef54-f8e2-4178-8886-095fcd209bd5" data-name="Fill-29" class="e53297b6-acf0-463b-a772-a7dd16f38f05" d="M55.81,112.19,7.74,160.25a.69.69,0,0,0,0,1h0a.69.69,0,0,0,.48.2h0a.7.7,0,0,0,.49-.2h0l48.08-48.06a.69.69,0,0,0,0-1h0a.71.71,0,0,0-.49-.2h0a.71.71,0,0,0-.49.2"/></g></g><g id="e46cb382-0b79-4f5d-af23-bc872c76e286" data-name="Group-34"><g class="a5f84b4e-aeda-4deb-a593-bb4a7c8b6035"><path id="a1a00e69-6f58-4b3b-9b81-bf9cfcb95476" data-name="Fill-32" class="bc59dc72-5185-4dff-9a6c-246aeddfa1ac" d="M55.81,112.19a.69.69,0,0,0,0,1h0l48.08,48.06a.7.7,0,0,0,.49.2h0a.73.73,0,0,0,.49-.2h0a.69.69,0,0,0,0-1h0L56.79,112.19a.71.71,0,0,0-.49-.2h0a.71.71,0,0,0-.49.2"/></g></g><g id="a0e6189c-b493-4e84-98d7-c05a3b6bb2b0" data-name="Group-37"><g class="fb5a64f7-afa8-465f-8676-38bd49c2641a"><path id="f26c8ee5-f139-4303-b99e-39456a7ba2e1" data-name="Fill-35" class="aaba8c5e-10be-44f0-ad26-10a7225ba3bb" d="M18.26,92a.69.69,0,0,0-.69.69h0v5.13a.69.69,0,0,0,.69.69H43.73a.69.69,0,0,0,.69-.69h0V92.72a.69.69,0,0,0-.69-.69H18.26ZM19,97.16H43V93.41H19Z"/></g></g><g id="bb482d02-95a9-4de7-9dbe-3fba864deac0" data-name="Group-40"><g class="e0a20021-f325-4c39-9d52-acdf10ff75b8"><path id="faa0e33e-03d0-406f-af3a-9e5c5d894569" data-name="Fill-38" class="a1535e43-7920-4c2f-8d19-955c00fb25b7" d="M48,92a.69.69,0,0,0-.69.69h0v5.13a.69.69,0,0,0,.69.69h5.25a.69.69,0,0,0,.69-.69h0V92.72a.69.69,0,0,0-.69-.69H48Zm.69,5.13h3.86V93.41H48.7Z"/></g></g><g id="bdd1267b-6e62-4df6-bed8-1c3b00a53b2a" data-name="Group-43"><g class="e9ea38b8-fe52-4a4a-975f-4a5f2a5035ff"><path id="e62994c6-3947-4bb0-bc2d-7937e03d703c" data-name="Fill-41" class="a84fa335-620a-4580-a57e-020a7044ee28" d="M18.26,84.32a.69.69,0,0,0-.69.69h0a.69.69,0,0,0,.69.69H43.73a.69.69,0,0,0,.69-.69h0a.69.69,0,0,0-.69-.69H18.26Z"/></g></g><g id="a1edb34b-4bdf-46c9-acfe-accb4695c4c7" data-name="Group-46"><g class="ad6b43a1-0b45-441b-bc2a-320329e32ea0"><path id="b37b68cf-d840-4e87-bdd3-ca238e67af94" data-name="Fill-44" class="a4b3486e-fabc-4aff-8fad-783fdb8ca356" d="M18.26,77.33a.69.69,0,0,0-.69.69h0a.69.69,0,0,0,.69.7h35A.69.69,0,0,0,54,78h0a.69.69,0,0,0-.69-.69h-35Z"/></g></g><g id="aeab3bcd-2582-4f68-9f8e-ef55ae94b1b8" data-name="Group-51"><g class="e4dda0f3-61dd-421c-81e6-c731bddfa1ec"><path id="b2b9fa23-f090-4e04-afa9-bed0cdda4b6a" data-name="Fill-49" class="fa68a90d-a8b5-4c52-8e17-43e2b147a613" d="M117.1,66.27,105.53,73a.68.68,0,0,0-.35.6h0V89.92a.7.7,0,0,0,.35.6h0L117.1,97.2a.73.73,0,0,0,.35.09h0a.67.67,0,0,0,.34-.09h0a.7.7,0,0,0,.35-.6h0V66.87a.68.68,0,0,0-.35-.6h0a.67.67,0,0,0-.34-.09h0a.73.73,0,0,0-.35.09ZM106.56,89.52V74l10.2-5.89V95.4Z"/></g></g><g id="a8233196-db29-48c9-bc59-e458b52fb548" data-name="Group-56"><g class="add51a93-b12f-466c-bbda-44765aab3484"><path id="b490eae4-2ac1-4708-ac60-32d009dd9119" data-name="Fill-54" class="a0799348-ac1f-49c1-9aa9-91c4fcd8cff5" d="M121.94,61.58l-4.84,2.79a.69.69,0,0,0-.34.6h0V98.5a.68.68,0,0,0,.34.59h0l4.84,2.79a.59.59,0,0,0,.34.1h0a.64.64,0,0,0,.35-.1h0a.68.68,0,0,0,.34-.59h0V62.18a.69.69,0,0,0-.34-.6h0a.73.73,0,0,0-.35-.09h0a.67.67,0,0,0-.34.09Zm-3.8,36.52V65.37l3.45-2v36.71Z"/></g></g><path id="b48198f6-f608-498e-be89-0fe753c8e34c" data-name="Fill-57" class="a55039eb-df1c-4596-a8d9-a79a07c1d5ca" d="M84.73,8.39V23.62a9.56,9.56,0,0,1,4.88,4.88h15.24A24.3,24.3,0,0,0,84.73,8.39"/><g id="a06e79a7-a2bc-40a6-a2ff-8c7311b2e8dd" data-name="Group-61"><g class="b2f1a243-10a0-4da2-b44c-124233a59c87"><path id="f90c0b07-7f9e-4285-819e-38973a5b92d2" data-name="Fill-59" class="ee9e627e-1690-4824-9c61-21f9f478b504" d="M84.4,8a.52.52,0,0,0-.18.4h0V23.62a.53.53,0,0,0,.3.48h0a9,9,0,0,1,4.62,4.61h0a.51.51,0,0,0,.47.3h15.24a.52.52,0,0,0,.4-.18h0a.48.48,0,0,0,.11-.41h0A24.69,24.69,0,0,0,84.81,7.88h-.07A.5.5,0,0,0,84.4,8m.85,15.3V9a23.68,23.68,0,0,1,19,19H89.94a10.06,10.06,0,0,0-4.69-4.69"/></g></g><path id="ae5a1c5a-c74c-42d0-b37b-955845f455f5" data-name="Fill-62" class="a55039eb-df1c-4596-a8d9-a79a07c1d5ca" d="M76.88,8.39A24.31,24.31,0,0,0,56.76,28.5H72a9.6,9.6,0,0,1,4.88-4.88Z"/><g id="fcc8d3ee-9786-42c3-ae8f-18f8bf835f1f" data-name="Group-66"><g class="bfecc8aa-f100-48e8-bb67-d7429a022110"><path id="a00e1bba-a480-41df-a78a-16fdcad80b3b" data-name="Fill-64" class="bf9abf44-1012-4d0c-990e-afd46466568e" d="M76.8,7.88A24.69,24.69,0,0,0,56.25,28.42h0a.52.52,0,0,0,.12.41h0a.48.48,0,0,0,.39.18H72a.53.53,0,0,0,.48-.3h0a9,9,0,0,1,4.61-4.61h0a.53.53,0,0,0,.31-.48h0V8.39a.55.55,0,0,0-.18-.4h0a.54.54,0,0,0-.34-.12H76.8M76.37,9V23.29A10,10,0,0,0,71.67,28H57.37a23.69,23.69,0,0,1,19-19"/></g></g><path id="fb3f9f5f-0346-40dd-9340-0a70ece2c8f2" data-name="Fill-67" class="a55039eb-df1c-4596-a8d9-a79a07c1d5ca" d="M72,36.34H56.76A24.33,24.33,0,0,0,76.88,56.46V41.22A9.56,9.56,0,0,1,72,36.34"/><g id="a8ca0871-9b15-49c6-9bc7-e12c0474a597" data-name="Group-71"><g class="f67c42eb-e231-4ce5-8bab-53e5f1e75220"><path id="ae8bcbe6-c93c-4889-9bbd-6e9c7a7bcdc2" data-name="Fill-69" class="afcaaa35-6cb1-411c-a74e-a28cbb5dceb9" d="M56.76,35.83a.52.52,0,0,0-.39.18h0a.54.54,0,0,0-.12.42h0A24.72,24.72,0,0,0,76.8,57h.08a.54.54,0,0,0,.34-.12h0a.53.53,0,0,0,.18-.39h0V41.22a.51.51,0,0,0-.31-.47h0a9,9,0,0,1-4.61-4.61h0a.53.53,0,0,0-.48-.31H56.76Zm.61,1h14.3a10,10,0,0,0,4.7,4.69h0V55.84a23.69,23.69,0,0,1-19-19Z"/></g></g><path id="f4cef84b-8dc1-439f-be94-756ac97adfeb" data-name="Fill-72" class="a55039eb-df1c-4596-a8d9-a79a07c1d5ca" d="M84.73,56.46a24.32,24.32,0,0,0,20.12-20.12H89.61a9.53,9.53,0,0,1-4.88,4.88Z"/><g id="ad6fef88-99c6-44e6-a63b-a8855feb04b4" data-name="Group-76"><g class="bf1a67f3-4c36-4dce-a61c-e6efbe990504"><path id="ab5ebd07-7907-4c61-95c1-4b89df5a0d5d" data-name="Fill-74" class="fae3dcf7-0700-4969-a0ef-0d963d61d94a" d="M89.61,35.83a.5.5,0,0,0-.47.31h0a9,9,0,0,1-4.62,4.61h0a.52.52,0,0,0-.3.47h0V56.46a.5.5,0,0,0,.18.39h0a.5.5,0,0,0,.33.12h.08a24.72,24.72,0,0,0,20.55-20.54h0a.5.5,0,0,0-.11-.42h0a.55.55,0,0,0-.4-.18H89.61Zm-4.36,5.72a10.06,10.06,0,0,0,4.69-4.69h14.3a23.68,23.68,0,0,1-19,19h0Z"/></g></g><path id="f9bfcc60-b123-4519-8f8a-c9a0f9fbbad5" data-name="Fill-77" class="a55039eb-df1c-4596-a8d9-a79a07c1d5ca" d="M25.93,24.39V35.17a6.71,6.71,0,0,1,3.44,3.44H40.15A17.21,17.21,0,0,0,25.93,24.39"/><g id="a66e524f-fad6-4e36-892d-e1500657b4ef" data-name="Group-81"><g class="e95a1e35-794b-4f07-875d-2f8679825fbd"><path id="b3975317-b654-4fad-b0f1-2e76417b5d9b" data-name="Fill-79" class="a4f63053-0ce1-46f1-bf19-bc066d518ccf" d="M25.69,24.11a.41.41,0,0,0-.13.28h0V35.17a.37.37,0,0,0,.22.33h0A6.33,6.33,0,0,1,29,38.76h0a.37.37,0,0,0,.33.22H40.15a.37.37,0,0,0,.28-.13h0a.36.36,0,0,0,.08-.3h0A17.48,17.48,0,0,0,26,24h-.05a.41.41,0,0,0-.24.08m.6,10.82V24.83A16.73,16.73,0,0,1,39.72,38.25H29.61a7.13,7.13,0,0,0-3.32-3.32"/></g></g><path id="bc73b520-5c42-445d-b492-bf13ff3d1cf9" data-name="Fill-82" class="a55039eb-df1c-4596-a8d9-a79a07c1d5ca" d="M20.38,24.39A17.21,17.21,0,0,0,6.15,38.61H16.93a6.73,6.73,0,0,1,3.45-3.44Z"/><g id="b47de158-b7f6-41af-a74d-3e94269af073" data-name="Group-86"><g class="a64ae552-f75e-4fcd-977f-2fcca7febe22"><path id="e6380f81-baf9-4121-aef2-1fbcb48fe584" data-name="Fill-84" class="fc16fec5-45c9-4465-9246-a7062b4edec1" d="M20.32,24A17.49,17.49,0,0,0,5.79,38.55h0a.36.36,0,0,0,.08.3h0a.37.37,0,0,0,.28.13H16.93a.37.37,0,0,0,.33-.22h0a6.36,6.36,0,0,1,3.26-3.26h0a.36.36,0,0,0,.22-.33h0V24.39a.41.41,0,0,0-.13-.28h0a.41.41,0,0,0-.24-.08h-.05m-.31.8v10.1a7.13,7.13,0,0,0-3.32,3.32H6.58A16.73,16.73,0,0,1,20,24.83"/></g></g><path id="ef7dbc5c-9a71-4d41-aa87-f5962989b205" data-name="Fill-87" class="a55039eb-df1c-4596-a8d9-a79a07c1d5ca" d="M16.93,44.16H6.15A17.2,17.2,0,0,0,20.38,58.38V47.61a6.75,6.75,0,0,1-3.45-3.45"/><g id="af6efbfb-c77b-4af2-aaf6-776c0f074f98" data-name="Group-91"><g class="bae9a7bc-43e8-4ed5-982c-da3552c8d344"><path id="b771a3d9-1374-40c0-b3f4-23f7b7ed024c" data-name="Fill-89" class="b2c44e2d-3787-4b73-bafd-f9f7236d36f7" d="M6.15,43.79a.37.37,0,0,0-.28.13h0a.36.36,0,0,0-.08.3h0A17.47,17.47,0,0,0,20.32,58.74h.06a.38.38,0,0,0,.23-.08h0a.37.37,0,0,0,.13-.28h0V47.61a.36.36,0,0,0-.22-.34h0A6.36,6.36,0,0,1,17.26,44h0a.37.37,0,0,0-.33-.22H6.15Zm.43.73H16.69A7.08,7.08,0,0,0,20,47.84h0V58A16.74,16.74,0,0,1,6.58,44.52Z"/></g></g><path id="b2d2e893-92b4-4f08-94c0-60db7b6b2917" data-name="Fill-92" class="a55039eb-df1c-4596-a8d9-a79a07c1d5ca" d="M25.93,58.38A17.2,17.2,0,0,0,40.15,44.16H29.37a6.73,6.73,0,0,1-3.44,3.45Z"/><g id="b975a5df-efba-4d53-a6c1-0d34b3babad4" data-name="Group-96"><g class="e4deee4e-b738-483e-94b4-e17a3821587c"><path id="acb80bf8-585a-4383-ab9c-fdc27f9d569e" data-name="Fill-94" class="b8839343-a3ce-477f-a7d7-993af1cc7e9d" d="M29.37,43.79A.37.37,0,0,0,29,44h0a6.33,6.33,0,0,1-3.26,3.26h0a.38.38,0,0,0-.22.34h0V58.38a.37.37,0,0,0,.13.28h0a.41.41,0,0,0,.24.08H26A17.47,17.47,0,0,0,40.51,44.22h0a.36.36,0,0,0-.08-.3h0a.37.37,0,0,0-.28-.13H29.37Zm-3.08,4.05a7.08,7.08,0,0,0,3.32-3.32H39.72A16.74,16.74,0,0,1,26.29,58h0Z"/></g></g></g></g></g></g></svg>