<svg id="b2bc0446-2291-40f3-bc95-82bfbc49c387" data-name="Capa 1" xmlns="http://www.w3.org/2000/svg" xmlns:xlink="http://www.w3.org/1999/xlink" viewBox="0 0 40 40"><defs><style>.b1b9fc4d-3c6a-459f-b651-023ae0ff8957{fill:#fff;fill-rule:evenodd;}.eb495e8e-3a44-45bb-abdc-fab018b01525{mask:url(#b8da1208-bca4-45e4-88ba-6be3173829da);}.ec5eba81-66be-4a76-a29d-d3d990b8b5d8{fill:none;}.a126f19f-0f7d-487f-a231-71479495721b{fill:#222326;}</style><mask id="b8da1208-bca4-45e4-88ba-6be3173829da" x="8.12" y="8.12" width="24" height="24" maskUnits="userSpaceOnUse"><g id="a4ca8567-0385-450c-afb8-689c1082771a" data-name="mask-2"><path id="a0992899-b4d9-4351-a6a2-f51f4d6e7fe5" data-name="path-1" class="b1b9fc4d-3c6a-459f-b651-023ae0ff8957" d="M18.53,20.12l5.3-5.29a1,1,0,0,0-1.42-1.42l-6,6a1,1,0,0,0,0,1.42l6,6a1,1,0,0,0,1.42-1.42Z"/></g></mask></defs><g id="ec667af2-75ff-43f1-873b-94592d23feac" data-name="GIFOS"><g id="f0a43b01-3cf2-4148-91a9-e753609d923f" data-name="button-slider-right-md-noct"><g id="aa9dc54b-74e8-48c3-ab85-3737bea2a044" data-name="right"><g class="eb495e8e-3a44-45bb-abdc-fab018b01525"><g id="adf3e457-586c-40b0-86d6-0c48a29b2b7d" data-name="Primary-color-Copy-2"><g id="b4bc3b8b-b19d-4278-9d1e-ddddd9a06586" data-name="Rectangle"><rect class="ec5eba81-66be-4a76-a29d-d3d990b8b5d8" x="8.12" y="8.12" width="24" height="24"/></g></g></g><g id="ab1e9eaf-f49d-4fa6-ac7a-96ab3695eece" data-name="Shape"><path id="bbd92bdd-e86c-42fa-a1fa-057d0d804a59" data-name="path-1" class="a126f19f-0f7d-487f-a231-71479495721b" d="M18.53,20.12l5.3-5.29a1,1,0,0,0-1.42-1.42l-6,6a1,1,0,0,0,0,1.42l6,6a1,1,0,0,0,1.42-1.42Z"/></g></g></g></g></svg>