<svg id="ab8fa7a2-2f1f-47b4-9b89-d7a65132c0ba" data-name="Capa 1" xmlns="http://www.w3.org/2000/svg" xmlns:xlink="http://www.w3.org/1999/xlink" viewBox="0 0 40 40"><defs><style>.aef8a0ed-a6db-46f0-ae4d-ad3fa6d0fcfe,.b2e11842-57c0-4735-ac2a-6798322327bc{fill:#fff;}.aef8a0ed-a6db-46f0-ae4d-ad3fa6d0fcfe{fill-rule:evenodd;}.fb10ab8c-b373-4ca8-b812-e023d5f80e7c{fill:#222326;stroke:#fff;stroke-miterlimit:10;}.a125fecb-89c4-456c-a9f4-c36b4cc5d071{mask:url(#e33b7954-a579-49c4-b5bc-df0e167ef0a2);}</style><mask id="e33b7954-a579-49c4-b5bc-df0e167ef0a2" x="8.12" y="8.12" width="24" height="24" maskUnits="userSpaceOnUse"><g id="bd65ee04-beda-4151-a11c-700b334429b4" data-name="mask-2"><path id="acf71773-80f4-4118-8319-7f74fbf50d5b" data-name="path-1" class="aef8a0ed-a6db-46f0-ae4d-ad3fa6d0fcfe" d="M18.53,20.12l5.3-5.29a1,1,0,0,0-1.42-1.42l-6,6a1,1,0,0,0,0,1.42l6,6a1,1,0,0,0,1.42-1.42Z"/></g></mask></defs><rect class="fb10ab8c-b373-4ca8-b812-e023d5f80e7c" x="0.49" y="0.5" width="39.03" height="39.03"/><g id="f8205b59-84c2-43be-948f-8ba448ccf09f" data-name="GIFOS"><g id="ef07795a-545c-4892-93ba-e12c63b32a64" data-name="button-slider-right-md-noct"><g id="b37f4243-655b-4dc0-904f-f4cd0a45b7ba" data-name="right"><g class="a125fecb-89c4-456c-a9f4-c36b4cc5d071"><g id="ad716c5b-eb5d-459f-b384-05635b71895c" data-name="Primary-color-Copy-2"><g id="f0e3ff27-235e-40cf-aa2d-5ec96a566bdb" data-name="Rectangle"><rect class="b2e11842-57c0-4735-ac2a-6798322327bc" x="8.12" y="8.12" width="24" height="24"/></g></g></g><g id="ec14cc2b-2404-46d8-b762-dc6488890812" data-name="Shape"><path id="b5f5302d-ff6d-4b7f-85bf-87d4d8e79060" data-name="path-1" class="b2e11842-57c0-4735-ac2a-6798322327bc" d="M18.53,20.12l5.3-5.29a1,1,0,0,0-1.42-1.42l-6,6a1,1,0,0,0,0,1.42l6,6a1,1,0,0,0,1.42-1.42Z"/></g></g></g></g></svg>