<svg id="ad788c01-df56-4c98-ab1f-e861f8fb9485" data-name="Capa 1" xmlns="http://www.w3.org/2000/svg" xmlns:xlink="http://www.w3.org/1999/xlink" viewBox="0 0 142 88"><defs><style>.ae03ac8b-6568-425e-98fe-b3973ef520e9{fill:#fff;}.a0a7ce4a-3334-482b-9075-e1d3ac35576a,.a618ce60-762a-4841-ad4e-e91ab24f6ea9,.ae03ac8b-6568-425e-98fe-b3973ef520e9,.ae6eb934-ce59-4db8-aeb1-dce70fd941a2,.b6318ef1-bb2c-4816-9e11-dd2686cac4e1,.b901d48c-406a-4382-9d3c-520b635f2a9f,.befe26ac-2224-4201-8679-ec8c26317082,.e1aaf2b4-1868-4608-a67e-e5f911cbafa9,.f19f431f-9bd5-429d-812e-f0c251988379{fill-rule:evenodd;}.b8dcae15-738f-4ac9-b915-ff922c0e6212{mask:url(#b5abea67-1f96-4b37-9ed1-facde43cf87b);}.f19f431f-9bd5-429d-812e-f0c251988379{fill:url(#a794ee54-60b4-4add-ac46-b69119551c3c);}.b1617b4d-f1ab-4455-a1c4-0331cad6740f{mask:url(#bc07c56d-0ef6-4ab2-92b6-7b5f6d0cd498);}.a0a7ce4a-3334-482b-9075-e1d3ac35576a{fill:url(#be9a6480-f08c-4381-b8ce-6de41d544190);}.a4dcb0b6-5fa2-438c-a0aa-dc8df05b5ba9{mask:url(#bcf8a08e-b8d2-44c4-9026-f8dddbd7a5af);}.b901d48c-406a-4382-9d3c-520b635f2a9f{fill:url(#a22c0152-86a7-4f4e-9b48-6ebea0329073);}.b4607924-51e9-4928-93e2-45fa2b2908e0{mask:url(#a818be56-6152-4de8-b32a-46bc85c214ec);}.befe26ac-2224-4201-8679-ec8c26317082{fill:url(#a3555396-f642-4efc-bfd3-bc91c0dd1b14);}.a0a57bc9-e845-48c4-bdf4-eaf60ac31286{mask:url(#b476fb9b-7d86-4e73-b274-b1825bbaf8eb);}.e1aaf2b4-1868-4608-a67e-e5f911cbafa9{fill:url(#a088c005-d911-498a-9333-f748a591787b);}.b8c8d21f-adf4-4f0e-a99c-96cd34f0e22f{mask:url(#a9c960e9-1cec-403f-9fbb-67743f8e6878);}.a618ce60-762a-4841-ad4e-e91ab24f6ea9{fill:url(#a6f22e65-6fcf-418f-b57b-b3949a1832e4);}.b94c7499-9f21-4894-b8be-7d5d549620ca{mask:url(#f03e3e63-66f9-4c0b-b1a9-9d3c7a636e05);}.ae6eb934-ce59-4db8-aeb1-dce70fd941a2{fill:url(#abe0e994-1e97-4ef7-befd-6b47779e7833);}.b72e1713-1ebf-4886-be06-12251d60bced{mask:url(#e56f1de8-1cd7-42ec-896b-21ac5704acd2);}.b6318ef1-bb2c-4816-9e11-dd2686cac4e1{fill:url(#e30f0f40-51c8-4da0-bdf9-f246ac36e433);}</style><mask id="b5abea67-1f96-4b37-9ed1-facde43cf87b" x="73.95" y="43.44" width="67.7" height="44.25" maskUnits="userSpaceOnUse"><g id="a10f2660-3d81-4462-bdda-f066ec330b4e" data-name="mask-2"><path id="b452e2c0-9ad9-43aa-b9e8-45adccd512e1" data-name="path-1" class="ae03ac8b-6568-425e-98fe-b3973ef520e9" d="M74.56,43.52a.61.61,0,0,0-.61.61h0a.61.61,0,0,0,.61.61H88.78c7.51,0,13.62,6.54,13.62,14.59h0V71.87a15.84,15.84,0,0,0,15.82,15.82H141a.61.61,0,0,0,.61-.61h0a.61.61,0,0,0-.61-.62H118.22a14.61,14.61,0,0,1-14.6-14.59h0V59.33c0-8.72-6.65-15.81-14.84-15.81H74.56Z"/></g></mask><linearGradient id="a794ee54-60b4-4add-ac46-b69119551c3c" x1="-68.78" y1="183.77" x2="-67.97" y2="183.77" gradientTransform="matrix(67.7, 0, 0, -44.17, 4742.78, 8183.03)" gradientUnits="userSpaceOnUse"><stop offset="0" stop-color="#7c72ff"/><stop offset="1" stop-color="#6d64f4"/></linearGradient><mask id="bc07c56d-0ef6-4ab2-92b6-7b5f6d0cd498" x="0" y="0.57" width="87.16" height="87.12" maskUnits="userSpaceOnUse"><g id="e90b5867-00c2-4286-aea8-c7c5e82657a2" data-name="mask-5"><path id="ba784807-b475-4580-86d9-2edf4c41259d" data-name="path-4" class="ae03ac8b-6568-425e-98fe-b3973ef520e9" d="M43.58.57A43.62,43.62,0,0,0,0,44.13H0A43.62,43.62,0,0,0,43.58,87.69h0A43.62,43.62,0,0,0,87.16,44.13h0A43.62,43.62,0,0,0,43.58.57ZM1.22,44.13A42.4,42.4,0,0,1,43.58,1.79h0A42.39,42.39,0,0,1,85.93,44.13h0A42.38,42.38,0,0,1,43.58,86.46h0A42.4,42.4,0,0,1,1.22,44.13Zm8.41,0A34,34,0,0,0,43.58,78.06h0a34,34,0,0,0,34-33.93h0A34,34,0,0,0,43.58,10.19h0A34,34,0,0,0,9.63,44.13Zm1.23,0A32.75,32.75,0,0,1,43.58,11.42h0A32.75,32.75,0,0,1,76.3,44.13h0A32.76,32.76,0,0,1,43.58,76.84h0A32.76,32.76,0,0,1,10.86,44.13Z"/></g></mask><linearGradient id="be9a6480-f08c-4381-b8ce-6de41d544190" x1="-69.2" y1="184.85" x2="-68.2" y2="184.85" gradientTransform="matrix(87.16, 0, 0, -87.12, 6031.21, 16148.26)" xlink:href="#a794ee54-60b4-4add-ac46-b69119551c3c"/><mask id="bcf8a08e-b8d2-44c4-9026-f8dddbd7a5af" x="9.63" y="10.19" width="67.89" height="67.87" maskUnits="userSpaceOnUse"><g id="a26017a3-d3f2-4ab4-83c9-78a68e903278" data-name="mask-8"><path id="acfcca13-8d2a-4217-a6b5-e33a0ae0bac3" data-name="path-7" class="ae03ac8b-6568-425e-98fe-b3973ef520e9" d="M9.63,44.13A34,34,0,0,0,43.58,78.06h0a34,34,0,0,0,34-33.93h0A34,34,0,0,0,43.58,10.19h0A34,34,0,0,0,9.63,44.13Zm1.23,0A32.75,32.75,0,0,1,43.58,11.42h0A32.75,32.75,0,0,1,76.3,44.13h0A32.76,32.76,0,0,1,43.58,76.84h0A32.76,32.76,0,0,1,10.86,44.13Zm37-28.93a.61.61,0,0,0-.21.46h0V33.72a.62.62,0,0,0,.36.56h0a10.66,10.66,0,0,1,5.47,5.47h0a.62.62,0,0,0,.56.36H72.06a.61.61,0,0,0,.46-.21h0a.61.61,0,0,0,.14-.5h0A29.29,29.29,0,0,0,48.31,15.06h-.1a.62.62,0,0,0-.4.15Zm1,18.13V16.39a28.06,28.06,0,0,1,22.51,22.5H54.38a11.86,11.86,0,0,0-5.56-5.56Zm-10-18.27A29.3,29.3,0,0,0,14.45,39.4h0a.61.61,0,0,0,.14.5h0a.64.64,0,0,0,.47.21H33.12a.62.62,0,0,0,.56-.36h0a10.7,10.7,0,0,1,5.47-5.47h0a.62.62,0,0,0,.37-.56h0V15.66a.58.58,0,0,0-.22-.46h0a.59.59,0,0,0-.4-.15h-.09Zm-.52,1.33V33.33a11.9,11.9,0,0,0-5.56,5.56H15.78a28.06,28.06,0,0,1,22.51-22.5ZM35.51,44.13a8.08,8.08,0,0,0,8.07,8.06h0a8.08,8.08,0,0,0,8.07-8.06h0a8.08,8.08,0,0,0-8.07-8.07h0a8.08,8.08,0,0,0-8.07,8.07Zm1.23,0a6.85,6.85,0,0,1,6.84-6.84h0a6.85,6.85,0,0,1,6.84,6.84h0A6.85,6.85,0,0,1,43.58,51h0a6.85,6.85,0,0,1-6.84-6.84ZM54,48.19a.62.62,0,0,0-.56.36h0A10.66,10.66,0,0,1,48,54h0a.62.62,0,0,0-.36.56h0V72.64a.64.64,0,0,0,.21.47h0a.65.65,0,0,0,.4.14h.1A29.28,29.28,0,0,0,72.66,48.9h0a.61.61,0,0,0-.14-.5h0a.61.61,0,0,0-.46-.21H54ZM48.82,55a11.81,11.81,0,0,0,5.56-5.56H71.33a28.06,28.06,0,0,1-22.51,22.5h0ZM15.06,48.19a.64.64,0,0,0-.47.21h0a.61.61,0,0,0-.14.5h0A29.29,29.29,0,0,0,38.81,73.24h.09a.63.63,0,0,0,.4-.14h0a.62.62,0,0,0,.22-.47h0V54.58a.62.62,0,0,0-.37-.56h0a10.7,10.7,0,0,1-5.47-5.47h0a.62.62,0,0,0-.56-.36H15.06Zm.72,1.22H32.73A11.9,11.9,0,0,0,38.29,55h0V71.91a28.06,28.06,0,0,1-22.51-22.5Z"/></g></mask><linearGradient id="a22c0152-86a7-4f4e-9b48-6ebea0329073" x1="-68.97" y1="184.54" x2="-67.97" y2="184.54" gradientTransform="matrix(67.89, 0, 0, -67.87, 4692.15, 12567.73)" xlink:href="#a794ee54-60b4-4add-ac46-b69119551c3c"/><mask id="a818be56-6152-4de8-b32a-46bc85c214ec" x="35.51" y="36.06" width="16.14" height="16.13" maskUnits="userSpaceOnUse"><g id="bee2b6e7-4287-43e6-bafb-74d1c94b06b8" data-name="mask-11"><path id="b185c7a7-c182-42d6-a53b-334c8d377de3" data-name="path-10" class="ae03ac8b-6568-425e-98fe-b3973ef520e9" d="M35.51,44.13a8.08,8.08,0,0,0,8.07,8.06h0a8.08,8.08,0,0,0,8.07-8.06h0a8.08,8.08,0,0,0-8.07-8.07h0a8.08,8.08,0,0,0-8.07,8.07m1.23,0a6.85,6.85,0,0,1,6.84-6.84h0a6.85,6.85,0,0,1,6.84,6.84h0A6.85,6.85,0,0,1,43.58,51h0a6.85,6.85,0,0,1-6.84-6.84"/></g></mask><linearGradient id="a3555396-f642-4efc-bfd3-bc91c0dd1b14" x1="-65.66" y1="179.95" x2="-64.66" y2="179.95" gradientTransform="matrix(16.14, 0, 0, -16.13, 1095.05, 2946.44)" xlink:href="#a794ee54-60b4-4add-ac46-b69119551c3c"/><mask id="b476fb9b-7d86-4e73-b274-b1825bbaf8eb" x="47.6" y="15.05" width="25.07" height="25.06" maskUnits="userSpaceOnUse"><g id="a04951ab-ee91-430c-b822-8b58c726e8ef" data-name="mask-14"><path id="e0dd7030-99a2-49eb-a5d1-797af1528311" data-name="path-13" class="ae03ac8b-6568-425e-98fe-b3973ef520e9" d="M47.81,15.2a.61.61,0,0,0-.21.46h0V33.72a.62.62,0,0,0,.36.56h0a10.66,10.66,0,0,1,5.47,5.47h0a.62.62,0,0,0,.56.36H72.06a.61.61,0,0,0,.46-.21h0a.61.61,0,0,0,.14-.5h0A29.29,29.29,0,0,0,48.31,15.06h-.1a.62.62,0,0,0-.4.15m1,18.13V16.39a28.06,28.06,0,0,1,22.51,22.5H54.38a11.86,11.86,0,0,0-5.56-5.56"/></g></mask><linearGradient id="a088c005-d911-498a-9333-f748a591787b" x1="-67.21" y1="182.09" x2="-66.21" y2="182.09" gradientTransform="matrix(25.07, 0, 0, -25.06, 1732.69, 4590.98)" xlink:href="#a794ee54-60b4-4add-ac46-b69119551c3c"/><mask id="a9c960e9-1cec-403f-9fbb-67743f8e6878" x="14.44" y="15.05" width="25.07" height="25.06" maskUnits="userSpaceOnUse"><g id="b67b281c-ff38-4818-ae6e-1de510a77def" data-name="mask-17"><path id="ab4cfb0d-2b9a-41d6-9c5a-7fd76bca1522" data-name="path-16" class="ae03ac8b-6568-425e-98fe-b3973ef520e9" d="M38.81,15.06A29.3,29.3,0,0,0,14.45,39.4h0a.61.61,0,0,0,.14.5h0a.64.64,0,0,0,.47.21H33.12a.62.62,0,0,0,.56-.36h0a10.7,10.7,0,0,1,5.47-5.47h0a.62.62,0,0,0,.37-.56h0V15.66a.58.58,0,0,0-.22-.46h0a.59.59,0,0,0-.4-.15h-.09m-.52,1.33V33.33a11.9,11.9,0,0,0-5.56,5.56H15.78a28.06,28.06,0,0,1,22.51-22.5"/></g></mask><linearGradient id="a6f22e65-6fcf-418f-b57b-b3949a1832e4" x1="-67.21" y1="182.09" x2="-66.21" y2="182.09" gradientTransform="matrix(25.07, 0, 0, -25.06, 1699.6, 4590.98)" xlink:href="#a794ee54-60b4-4add-ac46-b69119551c3c"/><mask id="f03e3e63-66f9-4c0b-b1a9-9d3c7a636e05" x="14.44" y="48.19" width="25.07" height="25.06" maskUnits="userSpaceOnUse"><g id="a9ccb8ca-0d09-4ed7-9444-c092be0890e5" data-name="mask-20"><path id="b7c7cc54-b264-4d2f-bb50-f05f0d044d32" data-name="path-19" class="ae03ac8b-6568-425e-98fe-b3973ef520e9" d="M15.06,48.19a.64.64,0,0,0-.47.21h0a.61.61,0,0,0-.14.5h0A29.29,29.29,0,0,0,38.81,73.24h.09a.63.63,0,0,0,.4-.14h0a.62.62,0,0,0,.22-.47h0V54.58a.62.62,0,0,0-.37-.56h0a10.7,10.7,0,0,1-5.47-5.47h0a.62.62,0,0,0-.56-.36H15.06Zm.72,1.22H32.73A11.9,11.9,0,0,0,38.29,55h0V71.91a28.06,28.06,0,0,1-22.51-22.5Z"/></g></mask><linearGradient id="abe0e994-1e97-4ef7-befd-6b47779e7833" x1="-67.21" y1="182.09" x2="-66.21" y2="182.09" gradientTransform="matrix(25.07, 0, 0, -25.06, 1699.6, 4624.44)" xlink:href="#a794ee54-60b4-4add-ac46-b69119551c3c"/><mask id="e56f1de8-1cd7-42ec-896b-21ac5704acd2" x="47.6" y="48.19" width="25.07" height="25.06" maskUnits="userSpaceOnUse"><g id="a92a6fbf-1fa2-4759-8bcc-ff770185d77d" data-name="mask-23"><path id="b2e972ff-a003-46c2-a547-89b5c29c48b1" data-name="path-22" class="ae03ac8b-6568-425e-98fe-b3973ef520e9" d="M54,48.19a.62.62,0,0,0-.56.36h0A10.66,10.66,0,0,1,48,54h0a.62.62,0,0,0-.36.56h0V72.64a.64.64,0,0,0,.21.47h0a.65.65,0,0,0,.4.14h.1A29.28,29.28,0,0,0,72.66,48.9h0a.61.61,0,0,0-.14-.5h0a.61.61,0,0,0-.46-.21H54ZM48.82,55a11.81,11.81,0,0,0,5.56-5.56H71.33a28.06,28.06,0,0,1-22.51,22.5h0Z"/></g></mask><linearGradient id="e30f0f40-51c8-4da0-bdf9-f246ac36e433" x1="-67.21" y1="182.09" x2="-66.21" y2="182.09" gradientTransform="matrix(25.07, 0, 0, -25.06, 1732.69, 4624.44)" xlink:href="#a794ee54-60b4-4add-ac46-b69119551c3c"/></defs><g id="b56e9ecf-822d-4d88-8036-a2f6bdb7d867" data-name="GIFOS"><g id="ac393165-97de-4500-963c-d62e705dd1af" data-name="00-UI-Kit"><g id="b3306221-14ba-4d3f-a874-59568caed17c" data-name="pelicula"><g id="f7ca429e-611a-4d01-b018-bae867008c4b" data-name="Group-39"><g id="b019c238-b23b-4897-bd4b-ed265119b9d0" data-name="Group-3"><g class="b8dcae15-738f-4ac9-b915-ff922c0e6212"><path id="e1b02a8a-f344-48b4-94f2-9c39902f63dc" data-name="Fill-1" class="f19f431f-9bd5-429d-812e-f0c251988379" d="M86.69,43.44c-.33,0-.31.25-.31.59l-.07.22c0,.34.09.5.43.5l0-.09,2.09.08c7.51,0,13.62,6.54,13.62,14.59h0V71.87a15.84,15.84,0,0,0,15.82,15.82H141a.61.61,0,0,0,.61-.61h0a.61.61,0,0,0-.61-.62H118.22a14.61,14.61,0,0,1-14.6-14.59h0V59.33c0-8.72-6.65-15.81-14.84-15.81h0Z"/></g></g><g id="e16cfb98-a9d5-4cbe-bff3-b3a1f8fe73e9" data-name="Group-8"><g class="b1617b4d-f1ab-4455-a1c4-0331cad6740f"><path id="e506b8e5-72c9-4dd8-9ac9-56911964ea0f" data-name="Fill-6" class="a0a7ce4a-3334-482b-9075-e1d3ac35576a" d="M43.58.57A43.62,43.62,0,0,0,0,44.13H0A43.62,43.62,0,0,0,43.58,87.69h0A43.62,43.62,0,0,0,87.16,44.13h0A43.62,43.62,0,0,0,43.58.57ZM1.22,44.13A42.4,42.4,0,0,1,43.58,1.79h0A42.39,42.39,0,0,1,85.93,44.13h0A42.38,42.38,0,0,1,43.58,86.46h0A42.4,42.4,0,0,1,1.22,44.13Zm8.41,0A34,34,0,0,0,43.58,78.06h0a34,34,0,0,0,34-33.93h0A34,34,0,0,0,43.58,10.19h0A34,34,0,0,0,9.63,44.13Zm1.23,0A32.75,32.75,0,0,1,43.58,11.42h0A32.75,32.75,0,0,1,76.3,44.13h0A32.76,32.76,0,0,1,43.58,76.84h0A32.76,32.76,0,0,1,10.86,44.13Z"/></g></g><g id="a314bfda-b21a-4ffb-8589-7afb920fec84" data-name="Group-13"><g class="a4dcb0b6-5fa2-438c-a0aa-dc8df05b5ba9"><path id="a1804fb0-affc-4bca-9d4b-5b6fa22c022e" data-name="Fill-11" class="b901d48c-406a-4382-9d3c-520b635f2a9f" d="M9.63,44.13A34,34,0,0,0,43.58,78.06h0a34,34,0,0,0,34-33.93h0A34,34,0,0,0,43.58,10.19h0A34,34,0,0,0,9.63,44.13Zm1.23,0A32.75,32.75,0,0,1,43.58,11.42h0A32.75,32.75,0,0,1,76.3,44.13h0A32.76,32.76,0,0,1,43.58,76.84h0A32.76,32.76,0,0,1,10.86,44.13Zm37-28.93a.61.61,0,0,0-.21.46h0V33.72a.62.62,0,0,0,.36.56h0a10.66,10.66,0,0,1,5.47,5.47h0a.62.62,0,0,0,.56.36H72.06a.61.61,0,0,0,.46-.21h0a.61.61,0,0,0,.14-.5h0A29.29,29.29,0,0,0,48.31,15.06h-.1a.62.62,0,0,0-.4.15Zm1,18.13V16.39a28.06,28.06,0,0,1,22.51,22.5H54.38a11.86,11.86,0,0,0-5.56-5.56Zm-10-18.27A29.3,29.3,0,0,0,14.45,39.4h0a.61.61,0,0,0,.14.5h0a.64.64,0,0,0,.47.21H33.12a.62.62,0,0,0,.56-.36h0a10.7,10.7,0,0,1,5.47-5.47h0a.62.62,0,0,0,.37-.56h0V15.66a.58.58,0,0,0-.22-.46h0a.59.59,0,0,0-.4-.15h-.09Zm-.52,1.33V33.33a11.9,11.9,0,0,0-5.56,5.56H15.78a28.06,28.06,0,0,1,22.51-22.5ZM35.51,44.13a8.08,8.08,0,0,0,8.07,8.06h0a8.08,8.08,0,0,0,8.07-8.06h0a8.08,8.08,0,0,0-8.07-8.07h0a8.08,8.08,0,0,0-8.07,8.07Zm1.23,0a6.85,6.85,0,0,1,6.84-6.84h0a6.85,6.85,0,0,1,6.84,6.84h0A6.85,6.85,0,0,1,43.58,51h0a6.85,6.85,0,0,1-6.84-6.84ZM54,48.19a.62.62,0,0,0-.56.36h0A10.66,10.66,0,0,1,48,54h0a.62.62,0,0,0-.36.56h0V72.64a.64.64,0,0,0,.21.47h0a.65.65,0,0,0,.4.14h.1A29.28,29.28,0,0,0,72.66,48.9h0a.61.61,0,0,0-.14-.5h0a.61.61,0,0,0-.46-.21H54ZM48.82,55a11.81,11.81,0,0,0,5.56-5.56H71.33a28.06,28.06,0,0,1-22.51,22.5h0ZM15.06,48.19a.64.64,0,0,0-.47.21h0a.61.61,0,0,0-.14.5h0A29.29,29.29,0,0,0,38.81,73.24h.09a.63.63,0,0,0,.4-.14h0a.62.62,0,0,0,.22-.47h0V54.58a.62.62,0,0,0-.37-.56h0a10.7,10.7,0,0,1-5.47-5.47h0a.62.62,0,0,0-.56-.36H15.06Zm.72,1.22H32.73A11.9,11.9,0,0,0,38.29,55h0V71.91a28.06,28.06,0,0,1-22.51-22.5Z"/></g></g><g id="b469c5d9-c985-4b4c-8c3b-fcf8b54e90d3" data-name="Group-18"><g class="b4607924-51e9-4928-93e2-45fa2b2908e0"><path id="f9efacdb-3e7d-4388-9e41-138ccb91ede9" data-name="Fill-16" class="befe26ac-2224-4201-8679-ec8c26317082" d="M35.51,44.13a8.08,8.08,0,0,0,8.07,8.06h0a8.08,8.08,0,0,0,8.07-8.06h0a8.08,8.08,0,0,0-8.07-8.07h0a8.08,8.08,0,0,0-8.07,8.07m1.23,0a6.85,6.85,0,0,1,6.84-6.84h0a6.85,6.85,0,0,1,6.84,6.84h0A6.85,6.85,0,0,1,43.58,51h0a6.85,6.85,0,0,1-6.84-6.84"/></g></g><g id="a589af50-854a-470e-bfb0-e358e9499757" data-name="Group-23"><g class="a0a57bc9-e845-48c4-bdf4-eaf60ac31286"><path id="a420c886-9d02-4a0c-a374-ec8117e678f8" data-name="Fill-21" class="e1aaf2b4-1868-4608-a67e-e5f911cbafa9" d="M47.81,15.2a.61.61,0,0,0-.21.46h0V33.72a.62.62,0,0,0,.36.56h0a10.66,10.66,0,0,1,5.47,5.47h0a.62.62,0,0,0,.56.36H72.06a.61.61,0,0,0,.46-.21h0a.61.61,0,0,0,.14-.5h0A29.29,29.29,0,0,0,48.31,15.06h-.1a.62.62,0,0,0-.4.15m1,18.13V16.39a28.06,28.06,0,0,1,22.51,22.5H54.38a11.86,11.86,0,0,0-5.56-5.56"/></g></g><g id="bb94893e-5f9e-447d-975e-1bc5dde8e684" data-name="Group-28"><g class="b8c8d21f-adf4-4f0e-a99c-96cd34f0e22f"><path id="b5360578-e96b-4c53-8267-97d92b1e2491" data-name="Fill-26" class="a618ce60-762a-4841-ad4e-e91ab24f6ea9" d="M38.81,15.06A29.3,29.3,0,0,0,14.45,39.4h0a.61.61,0,0,0,.14.5h0a.64.64,0,0,0,.47.21H33.12a.62.62,0,0,0,.56-.36h0a10.7,10.7,0,0,1,5.47-5.47h0a.62.62,0,0,0,.37-.56h0V15.66a.58.58,0,0,0-.22-.46h0a.59.59,0,0,0-.4-.15h-.09m-.52,1.33V33.33a11.9,11.9,0,0,0-5.56,5.56H15.78a28.06,28.06,0,0,1,22.51-22.5"/></g></g><g id="a5b03729-ba3c-4da9-8aab-1b66dc9300e6" data-name="Group-33"><g class="b94c7499-9f21-4894-b8be-7d5d549620ca"><path id="a8c18f39-558e-413e-b994-073682691782" data-name="Fill-31" class="ae6eb934-ce59-4db8-aeb1-dce70fd941a2" d="M15.06,48.19a.64.64,0,0,0-.47.21h0a.61.61,0,0,0-.14.5h0A29.29,29.29,0,0,0,38.81,73.24h.09a.63.63,0,0,0,.4-.14h0a.62.62,0,0,0,.22-.47h0V54.58a.62.62,0,0,0-.37-.56h0a10.7,10.7,0,0,1-5.47-5.47h0a.62.62,0,0,0-.56-.36H15.06Zm.72,1.22H32.73A11.9,11.9,0,0,0,38.29,55h0V71.91a28.06,28.06,0,0,1-22.51-22.5Z"/></g></g><g id="ab6ff80a-80f9-4c81-9d7a-579586a362e0" data-name="Group-38"><g class="b72e1713-1ebf-4886-be06-12251d60bced"><path id="bba7ef7f-967b-499a-b4d0-6c032aaec8bb" data-name="Fill-36" class="b6318ef1-bb2c-4816-9e11-dd2686cac4e1" d="M54,48.19a.62.62,0,0,0-.56.36h0A10.66,10.66,0,0,1,48,54h0a.62.62,0,0,0-.36.56h0V72.64a.64.64,0,0,0,.21.47h0a.65.65,0,0,0,.4.14h.1A29.28,29.28,0,0,0,72.66,48.9h0a.61.61,0,0,0-.14-.5h0a.61.61,0,0,0-.46-.21H54ZM48.82,55a11.81,11.81,0,0,0,5.56-5.56H71.33a28.06,28.06,0,0,1-22.51,22.5h0Z"/></g></g></g></g></g></g></svg>