<svg id="b76c6872-4c9a-4c69-a8f3-804c4ecb9c02" data-name="Capa 1" xmlns="http://www.w3.org/2000/svg" xmlns:xlink="http://www.w3.org/1999/xlink" viewBox="0 0 40 40"><defs><style>.b07c449c-c3a9-4beb-b98d-487cf97963ba{fill:#fff;fill-rule:evenodd;}.a7407ebf-8532-490a-8e1d-8b7fbcd8a53d{mask:url(#eee4ced3-68b9-4ef0-92e5-de0584f6634f);}.bb34a61f-ce41-4174-98b9-d49ad3f98447{fill:none;}.a9d3280b-c734-460a-97fd-a635dcdced12{fill:#222326;}</style><mask id="eee4ced3-68b9-4ef0-92e5-de0584f6634f" x="8.12" y="8.12" width="24" height="24" maskUnits="userSpaceOnUse"><g id="bbfe0398-df44-4f92-8cdc-9a6915de1b31" data-name="mask-2"><path id="ab3c11f0-1432-4bbc-bee7-7449a566114f" data-name="path-1" class="b07c449c-c3a9-4beb-b98d-487cf97963ba" d="M21.71,20.12l-5.3,5.29a1,1,0,0,0,1.42,1.42l6-6a1,1,0,0,0,0-1.42l-6-6a1,1,0,1,0-1.42,1.42Z"/></g></mask></defs><g id="a2ac0966-0932-452d-80b6-7caa1a884fc0" data-name="GIFOS"><g id="ecf44b7f-cbcc-48c1-ab63-08b1671f9d2f" data-name="button-slider-right-md-noct"><g id="aec133ba-140a-465c-b372-eb3586106f79" data-name="right"><g class="a7407ebf-8532-490a-8e1d-8b7fbcd8a53d"><g id="e17cc1ca-aba3-47c2-a078-a3c93286ec41" data-name="Primary-color-Copy-2"><g id="b5f8eb8e-f249-4a36-8a70-ebceaa907468" data-name="Rectangle"><rect class="bb34a61f-ce41-4174-98b9-d49ad3f98447" x="8.12" y="8.12" width="24" height="24"/></g></g></g><g id="f795aced-7167-41ea-9193-4f6a520c8093" data-name="Shape"><path id="ab58913d-8b75-4287-a0e0-6d9b7b393d10" data-name="path-1" class="a9d3280b-c734-460a-97fd-a635dcdced12" d="M21.71,20.12l-5.3,5.29a1,1,0,0,0,1.42,1.42l6-6a1,1,0,0,0,0-1.42l-6-6a1,1,0,1,0-1.42,1.42Z"/></g></g></g></g></svg>