<svg id="a257a50b-d68f-451d-a748-f5f34427f616" data-name="Capa 1" xmlns="http://www.w3.org/2000/svg" xmlns:xlink="http://www.w3.org/1999/xlink" viewBox="0 0 40 40"><defs><style>.a03eff7d-bbe6-49a3-939e-7ec80ca628eb{fill:#fff;fill-rule:evenodd;}.bc0b2961-a80d-42ce-806f-b18f02cb3002{fill:none;}.a3797b44-0df1-46a9-9314-2306f78c8941{mask:url(#b1276934-f2e3-491d-9fd3-9f9f7761c74f);}</style><mask id="b1276934-f2e3-491d-9fd3-9f9f7761c74f" x="8.12" y="8.12" width="24" height="24" maskUnits="userSpaceOnUse"><g id="f45e1acd-e3e0-4708-b314-02ecd23ddf17" data-name="mask-2"><path id="e7853bf4-4ec1-4d6d-93c2-65679ce9703e" data-name="path-1" class="a03eff7d-bbe6-49a3-939e-7ec80ca628eb" d="M21.71,20.12l-5.3,5.29a1,1,0,0,0,1.42,1.42l6-6a1,1,0,0,0,0-1.42l-6-6a1,1,0,1,0-1.42,1.42Z"/></g></mask></defs><g id="a0a83e9b-d31d-477a-882c-e7ca85fe3fc3" data-name="GIFOS"><g id="bd282c3c-8c34-43c4-9d8d-4234960302d0" data-name="button-slider-right-md-noct"><rect id="eb0f4b8e-dbea-4a93-9ace-069cdeaad2e6" data-name="Rectangle" class="bc0b2961-a80d-42ce-806f-b18f02cb3002" x="0.62" y="0.62" width="39" height="39"/><g id="b7bc9d42-ec47-48c4-a81d-8d78c1c095ad" data-name="right"><g class="a3797b44-0df1-46a9-9314-2306f78c8941"><g id="af9cceab-dd7a-4e14-ac4e-c3534905a649" data-name="Primary-color-Copy-2"><g id="bb30fe40-b61a-4acb-aa73-da4e4655ba38" data-name="Rectangle"><rect class="bc0b2961-a80d-42ce-806f-b18f02cb3002" x="8.12" y="8.12" width="24" height="24"/></g></g></g><g id="b6782007-f2f5-402b-8a2d-90c8f9cba9a1" data-name="Shape"><path id="a08603a8-bba8-4f54-be17-bfecd83204d1" data-name="path-1" class="bc0b2961-a80d-42ce-806f-b18f02cb3002" d="M21.71,20.12l-5.3,5.29a1,1,0,0,0,1.42,1.42l6-6a1,1,0,0,0,0-1.42l-6-6a1,1,0,1,0-1.42,1.42Z"/></g></g></g></g></svg>