<svg id="b7cedd47-4528-483e-8d13-5c2e798850b8" data-name="Capa 1" xmlns="http://www.w3.org/2000/svg" xmlns:xlink="http://www.w3.org/1999/xlink" viewBox="0 0 40 40"><defs><style>.a28952c9-9826-4699-9f36-6b0eeb1ea801,.ab23a413-9922-4e47-8538-ba90ce1a79e4{fill:#fff;}.ab23a413-9922-4e47-8538-ba90ce1a79e4{fill-rule:evenodd;}.a85eb179-4893-42d4-a803-39b06fbd4cde{fill:#222326;stroke:#fff;stroke-miterlimit:10;}.a21eb4ce-ed53-46e7-b9a1-41c6d6e5c4e4{mask:url(#b6ab30cb-7823-4b6f-9cc0-4a303886974d);}</style><mask id="b6ab30cb-7823-4b6f-9cc0-4a303886974d" x="8.12" y="8.12" width="24" height="24" maskUnits="userSpaceOnUse"><g id="b9700423-7660-4736-93c2-a80890872113" data-name="mask-2"><path id="b4e2409c-19f1-4eee-8f83-58deb94dcbf0" data-name="path-1" class="ab23a413-9922-4e47-8538-ba90ce1a79e4" d="M21.71,20.12l-5.3,5.29a1,1,0,0,0,1.42,1.42l6-6a1,1,0,0,0,0-1.42l-6-6a1,1,0,1,0-1.42,1.42Z"/></g></mask></defs><rect class="a85eb179-4893-42d4-a803-39b06fbd4cde" x="0.49" y="0.5" width="39.03" height="39.03"/><g id="efb5a553-a3ab-42f5-90a6-7e34e380e9db" data-name="GIFOS"><g id="e45d73f6-6030-4787-a2a8-d1a2ca633e18" data-name="button-slider-right-md-noct"><g id="bf5122cf-f6aa-4c1b-98ad-8755b09201d1" data-name="right"><g class="a21eb4ce-ed53-46e7-b9a1-41c6d6e5c4e4"><g id="a6aa72fd-d38e-400b-a3fb-b1037b718353" data-name="Primary-color-Copy-2"><g id="b3b11e8a-394d-4adc-9af3-c2f6c2c28f73" data-name="Rectangle"><rect class="a28952c9-9826-4699-9f36-6b0eeb1ea801" x="8.12" y="8.12" width="24" height="24"/></g></g></g><g id="af98e55c-1dae-4206-9d08-e62426809910" data-name="Shape"><path id="a8d67d40-886a-4509-8ae6-65076dc09c28" data-name="path-1" class="a28952c9-9826-4699-9f36-6b0eeb1ea801" d="M21.71,20.12l-5.3,5.29a1,1,0,0,0,1.42,1.42l6-6a1,1,0,0,0,0-1.42l-6-6a1,1,0,1,0-1.42,1.42Z"/></g></g></g></g></svg>